<mxfile host="app.diagrams.net" modified="2023-12-21T17:28:47.244Z" agent="Mozilla/5.0 (Macintosh; Intel Mac OS X 10_15_7) AppleWebKit/537.36 (KHTML, like Gecko) Chrome/114.0.0.0 Safari/537.36" etag="tPHkRj90dcVeWetuM6SW" version="22.1.11" type="github" pages="3">
  <diagram id="C5RBs43oDa-KdzZeNtuy" name="Page-1">
    <mxGraphModel dx="1405" dy="939" grid="1" gridSize="10" guides="1" tooltips="1" connect="1" arrows="1" fold="1" page="1" pageScale="1" pageWidth="827" pageHeight="1169" math="0" shadow="0">
      <root>
        <mxCell id="WIyWlLk6GJQsqaUBKTNV-0" />
        <mxCell id="WIyWlLk6GJQsqaUBKTNV-1" parent="WIyWlLk6GJQsqaUBKTNV-0" />
        <mxCell id="zkfFHV4jXpPFQw0GAbJ--0" value="비대면업무" style="swimlane;fontStyle=2;align=center;verticalAlign=top;childLayout=stackLayout;horizontal=1;startSize=26;horizontalStack=0;resizeParent=1;resizeLast=0;collapsible=1;marginBottom=0;rounded=0;shadow=0;strokeWidth=1;" parent="WIyWlLk6GJQsqaUBKTNV-1" vertex="1">
          <mxGeometry x="259" y="460" width="160" height="138" as="geometry">
            <mxRectangle x="230" y="140" width="160" height="26" as="alternateBounds" />
          </mxGeometry>
        </mxCell>
        <mxCell id="zkfFHV4jXpPFQw0GAbJ--1" value="업무코드" style="text;align=left;verticalAlign=top;spacingLeft=4;spacingRight=4;overflow=hidden;rotatable=0;points=[[0,0.5],[1,0.5]];portConstraint=eastwest;" parent="zkfFHV4jXpPFQw0GAbJ--0" vertex="1">
          <mxGeometry y="26" width="160" height="26" as="geometry" />
        </mxCell>
        <mxCell id="zkfFHV4jXpPFQw0GAbJ--2" value="업무배정일" style="text;align=left;verticalAlign=top;spacingLeft=4;spacingRight=4;overflow=hidden;rotatable=0;points=[[0,0.5],[1,0.5]];portConstraint=eastwest;rounded=0;shadow=0;html=0;" parent="zkfFHV4jXpPFQw0GAbJ--0" vertex="1">
          <mxGeometry y="52" width="160" height="26" as="geometry" />
        </mxCell>
        <mxCell id="zkfFHV4jXpPFQw0GAbJ--3" value="업무상태" style="text;align=left;verticalAlign=top;spacingLeft=4;spacingRight=4;overflow=hidden;rotatable=0;points=[[0,0.5],[1,0.5]];portConstraint=eastwest;rounded=0;shadow=0;html=0;" parent="zkfFHV4jXpPFQw0GAbJ--0" vertex="1">
          <mxGeometry y="78" width="160" height="26" as="geometry" />
        </mxCell>
        <mxCell id="zkfFHV4jXpPFQw0GAbJ--4" value="" style="line;html=1;strokeWidth=1;align=left;verticalAlign=middle;spacingTop=-1;spacingLeft=3;spacingRight=3;rotatable=0;labelPosition=right;points=[];portConstraint=eastwest;" parent="zkfFHV4jXpPFQw0GAbJ--0" vertex="1">
          <mxGeometry y="104" width="160" height="8" as="geometry" />
        </mxCell>
        <mxCell id="zkfFHV4jXpPFQw0GAbJ--5" value="업무인터페이스 메소드 구현" style="text;align=left;verticalAlign=top;spacingLeft=4;spacingRight=4;overflow=hidden;rotatable=0;points=[[0,0.5],[1,0.5]];portConstraint=eastwest;" parent="zkfFHV4jXpPFQw0GAbJ--0" vertex="1">
          <mxGeometry y="112" width="160" height="26" as="geometry" />
        </mxCell>
        <mxCell id="zkfFHV4jXpPFQw0GAbJ--6" value="파일" style="swimlane;fontStyle=0;align=center;verticalAlign=top;childLayout=stackLayout;horizontal=1;startSize=26;horizontalStack=0;resizeParent=1;resizeLast=0;collapsible=1;marginBottom=0;rounded=0;shadow=0;strokeWidth=1;" parent="WIyWlLk6GJQsqaUBKTNV-1" vertex="1">
          <mxGeometry x="24" y="730" width="210" height="121" as="geometry">
            <mxRectangle x="130" y="380" width="160" height="26" as="alternateBounds" />
          </mxGeometry>
        </mxCell>
        <mxCell id="zkfFHV4jXpPFQw0GAbJ--7" value="파일식별번호" style="text;align=left;verticalAlign=top;spacingLeft=4;spacingRight=4;overflow=hidden;rotatable=0;points=[[0,0.5],[1,0.5]];portConstraint=eastwest;" parent="zkfFHV4jXpPFQw0GAbJ--6" vertex="1">
          <mxGeometry y="26" width="210" height="26" as="geometry" />
        </mxCell>
        <mxCell id="zkfFHV4jXpPFQw0GAbJ--8" value="파일등록일자" style="text;align=left;verticalAlign=top;spacingLeft=4;spacingRight=4;overflow=hidden;rotatable=0;points=[[0,0.5],[1,0.5]];portConstraint=eastwest;rounded=0;shadow=0;html=0;" parent="zkfFHV4jXpPFQw0GAbJ--6" vertex="1">
          <mxGeometry y="52" width="210" height="26" as="geometry" />
        </mxCell>
        <mxCell id="zkfFHV4jXpPFQw0GAbJ--9" value="" style="line;html=1;strokeWidth=1;align=left;verticalAlign=middle;spacingTop=-1;spacingLeft=3;spacingRight=3;rotatable=0;labelPosition=right;points=[];portConstraint=eastwest;" parent="zkfFHV4jXpPFQw0GAbJ--6" vertex="1">
          <mxGeometry y="78" width="210" height="8" as="geometry" />
        </mxCell>
        <mxCell id="fTCJYqOAzkWOMCg7mj_o-117" value="파일업로드인터페이스 메소드 구현" style="text;align=left;verticalAlign=top;spacingLeft=4;spacingRight=4;overflow=hidden;rotatable=0;points=[[0,0.5],[1,0.5]];portConstraint=eastwest;" vertex="1" parent="zkfFHV4jXpPFQw0GAbJ--6">
          <mxGeometry y="86" width="210" height="26" as="geometry" />
        </mxCell>
        <mxCell id="zkfFHV4jXpPFQw0GAbJ--13" value="담당자이력" style="swimlane;fontStyle=0;align=center;verticalAlign=top;childLayout=stackLayout;horizontal=1;startSize=26;horizontalStack=0;resizeParent=1;resizeLast=0;collapsible=1;marginBottom=0;rounded=0;shadow=0;strokeWidth=1;" parent="WIyWlLk6GJQsqaUBKTNV-1" vertex="1">
          <mxGeometry x="1178.25" y="469" width="160" height="198" as="geometry">
            <mxRectangle x="340" y="380" width="170" height="26" as="alternateBounds" />
          </mxGeometry>
        </mxCell>
        <mxCell id="zkfFHV4jXpPFQw0GAbJ--14" value="업무코드" style="text;align=left;verticalAlign=top;spacingLeft=4;spacingRight=4;overflow=hidden;rotatable=0;points=[[0,0.5],[1,0.5]];portConstraint=eastwest;" parent="zkfFHV4jXpPFQw0GAbJ--13" vertex="1">
          <mxGeometry y="26" width="160" height="26" as="geometry" />
        </mxCell>
        <mxCell id="fTCJYqOAzkWOMCg7mj_o-12" value="담당자사번" style="text;align=left;verticalAlign=top;spacingLeft=4;spacingRight=4;overflow=hidden;rotatable=0;points=[[0,0.5],[1,0.5]];portConstraint=eastwest;" vertex="1" parent="zkfFHV4jXpPFQw0GAbJ--13">
          <mxGeometry y="52" width="160" height="26" as="geometry" />
        </mxCell>
        <mxCell id="fTCJYqOAzkWOMCg7mj_o-13" value="담당자등록일" style="text;align=left;verticalAlign=top;spacingLeft=4;spacingRight=4;overflow=hidden;rotatable=0;points=[[0,0.5],[1,0.5]];portConstraint=eastwest;" vertex="1" parent="zkfFHV4jXpPFQw0GAbJ--13">
          <mxGeometry y="78" width="160" height="32" as="geometry" />
        </mxCell>
        <mxCell id="fTCJYqOAzkWOMCg7mj_o-15" value="직급" style="text;align=left;verticalAlign=top;spacingLeft=4;spacingRight=4;overflow=hidden;rotatable=0;points=[[0,0.5],[1,0.5]];portConstraint=eastwest;" vertex="1" parent="zkfFHV4jXpPFQw0GAbJ--13">
          <mxGeometry y="110" width="160" height="20" as="geometry" />
        </mxCell>
        <mxCell id="zkfFHV4jXpPFQw0GAbJ--15" value="" style="line;html=1;strokeWidth=1;align=left;verticalAlign=middle;spacingTop=-1;spacingLeft=3;spacingRight=3;rotatable=0;labelPosition=right;points=[];portConstraint=eastwest;" parent="zkfFHV4jXpPFQw0GAbJ--13" vertex="1">
          <mxGeometry y="130" width="160" height="8" as="geometry" />
        </mxCell>
        <mxCell id="fTCJYqOAzkWOMCg7mj_o-68" value="&amp;nbsp; 담당자이력조회" style="text;html=1;align=left;verticalAlign=middle;resizable=0;points=[];autosize=1;strokeColor=none;fillColor=none;" vertex="1" parent="zkfFHV4jXpPFQw0GAbJ--13">
          <mxGeometry y="138" width="160" height="30" as="geometry" />
        </mxCell>
        <mxCell id="fTCJYqOAzkWOMCg7mj_o-89" value="&amp;nbsp; 담당자이력등록" style="text;html=1;align=left;verticalAlign=middle;resizable=0;points=[];autosize=1;strokeColor=none;fillColor=none;" vertex="1" parent="zkfFHV4jXpPFQw0GAbJ--13">
          <mxGeometry y="168" width="160" height="30" as="geometry" />
        </mxCell>
        <mxCell id="zkfFHV4jXpPFQw0GAbJ--17" value="고객" style="swimlane;fontStyle=0;align=center;verticalAlign=top;childLayout=stackLayout;horizontal=1;startSize=26;horizontalStack=0;resizeParent=1;resizeLast=0;collapsible=1;marginBottom=0;rounded=0;shadow=0;strokeWidth=1;" parent="WIyWlLk6GJQsqaUBKTNV-1" vertex="1">
          <mxGeometry x="17.25" y="208" width="220" height="130" as="geometry">
            <mxRectangle x="550" y="140" width="160" height="26" as="alternateBounds" />
          </mxGeometry>
        </mxCell>
        <mxCell id="zkfFHV4jXpPFQw0GAbJ--18" value="고객식별코드" style="text;align=left;verticalAlign=top;spacingLeft=4;spacingRight=4;overflow=hidden;rotatable=0;points=[[0,0.5],[1,0.5]];portConstraint=eastwest;" parent="zkfFHV4jXpPFQw0GAbJ--17" vertex="1">
          <mxGeometry y="26" width="220" height="26" as="geometry" />
        </mxCell>
        <mxCell id="zkfFHV4jXpPFQw0GAbJ--23" value="" style="line;html=1;strokeWidth=1;align=left;verticalAlign=middle;spacingTop=-1;spacingLeft=3;spacingRight=3;rotatable=0;labelPosition=right;points=[];portConstraint=eastwest;" parent="zkfFHV4jXpPFQw0GAbJ--17" vertex="1">
          <mxGeometry y="52" width="220" height="8" as="geometry" />
        </mxCell>
        <mxCell id="zkfFHV4jXpPFQw0GAbJ--24" value="업무접수" style="text;align=left;verticalAlign=top;spacingLeft=4;spacingRight=4;overflow=hidden;rotatable=0;points=[[0,0.5],[1,0.5]];portConstraint=eastwest;" parent="zkfFHV4jXpPFQw0GAbJ--17" vertex="1">
          <mxGeometry y="60" width="220" height="26" as="geometry" />
        </mxCell>
        <mxCell id="zkfFHV4jXpPFQw0GAbJ--25" value="파일업로드" style="text;align=left;verticalAlign=top;spacingLeft=4;spacingRight=4;overflow=hidden;rotatable=0;points=[[0,0.5],[1,0.5]];portConstraint=eastwest;" parent="zkfFHV4jXpPFQw0GAbJ--17" vertex="1">
          <mxGeometry y="86" width="220" height="26" as="geometry" />
        </mxCell>
        <mxCell id="fTCJYqOAzkWOMCg7mj_o-5" value="담당자" style="swimlane;fontStyle=0;align=center;verticalAlign=top;childLayout=stackLayout;horizontal=1;startSize=26;horizontalStack=0;resizeParent=1;resizeLast=0;collapsible=1;marginBottom=0;rounded=0;shadow=0;strokeWidth=1;" vertex="1" parent="WIyWlLk6GJQsqaUBKTNV-1">
          <mxGeometry x="898.25" y="211" width="130" height="190" as="geometry">
            <mxRectangle x="130" y="380" width="160" height="26" as="alternateBounds" />
          </mxGeometry>
        </mxCell>
        <mxCell id="fTCJYqOAzkWOMCg7mj_o-6" value="담당자사번" style="text;align=left;verticalAlign=top;spacingLeft=4;spacingRight=4;overflow=hidden;rotatable=0;points=[[0,0.5],[1,0.5]];portConstraint=eastwest;" vertex="1" parent="fTCJYqOAzkWOMCg7mj_o-5">
          <mxGeometry y="26" width="130" height="26" as="geometry" />
        </mxCell>
        <mxCell id="fTCJYqOAzkWOMCg7mj_o-7" value="담당자등록일자" style="text;align=left;verticalAlign=top;spacingLeft=4;spacingRight=4;overflow=hidden;rotatable=0;points=[[0,0.5],[1,0.5]];portConstraint=eastwest;rounded=0;shadow=0;html=0;" vertex="1" parent="fTCJYqOAzkWOMCg7mj_o-5">
          <mxGeometry y="52" width="130" height="26" as="geometry" />
        </mxCell>
        <mxCell id="fTCJYqOAzkWOMCg7mj_o-11" value="직급" style="text;align=left;verticalAlign=top;spacingLeft=4;spacingRight=4;overflow=hidden;rotatable=0;points=[[0,0.5],[1,0.5]];portConstraint=eastwest;rounded=0;shadow=0;html=0;" vertex="1" parent="fTCJYqOAzkWOMCg7mj_o-5">
          <mxGeometry y="78" width="130" height="26" as="geometry" />
        </mxCell>
        <mxCell id="fTCJYqOAzkWOMCg7mj_o-8" value="" style="line;html=1;strokeWidth=1;align=left;verticalAlign=middle;spacingTop=-1;spacingLeft=3;spacingRight=3;rotatable=0;labelPosition=right;points=[];portConstraint=eastwest;" vertex="1" parent="fTCJYqOAzkWOMCg7mj_o-5">
          <mxGeometry y="104" width="130" height="8" as="geometry" />
        </mxCell>
        <mxCell id="fTCJYqOAzkWOMCg7mj_o-9" value="담당자확인" style="text;align=left;verticalAlign=top;spacingLeft=4;spacingRight=4;overflow=hidden;rotatable=0;points=[[0,0.5],[1,0.5]];portConstraint=eastwest;fontStyle=0" vertex="1" parent="fTCJYqOAzkWOMCg7mj_o-5">
          <mxGeometry y="112" width="130" height="26" as="geometry" />
        </mxCell>
        <mxCell id="fTCJYqOAzkWOMCg7mj_o-67" value="담당자배정" style="text;align=left;verticalAlign=top;spacingLeft=4;spacingRight=4;overflow=hidden;rotatable=0;points=[[0,0.5],[1,0.5]];portConstraint=eastwest;fontStyle=0" vertex="1" parent="fTCJYqOAzkWOMCg7mj_o-5">
          <mxGeometry y="138" width="130" height="26" as="geometry" />
        </mxCell>
        <mxCell id="fTCJYqOAzkWOMCg7mj_o-74" value="담당자이력등록" style="text;align=left;verticalAlign=top;spacingLeft=4;spacingRight=4;overflow=hidden;rotatable=0;points=[[0,0.5],[1,0.5]];portConstraint=eastwest;fontStyle=0" vertex="1" parent="fTCJYqOAzkWOMCg7mj_o-5">
          <mxGeometry y="164" width="130" height="26" as="geometry" />
        </mxCell>
        <mxCell id="fTCJYqOAzkWOMCg7mj_o-16" value="대무자" style="swimlane;fontStyle=0;align=center;verticalAlign=top;childLayout=stackLayout;horizontal=1;startSize=26;horizontalStack=0;resizeParent=1;resizeLast=0;collapsible=1;marginBottom=0;rounded=0;shadow=0;strokeWidth=1;" vertex="1" parent="WIyWlLk6GJQsqaUBKTNV-1">
          <mxGeometry x="720" y="470" width="157.5" height="216" as="geometry">
            <mxRectangle x="130" y="380" width="160" height="26" as="alternateBounds" />
          </mxGeometry>
        </mxCell>
        <mxCell id="fTCJYqOAzkWOMCg7mj_o-17" value="대무자사번" style="text;align=left;verticalAlign=top;spacingLeft=4;spacingRight=4;overflow=hidden;rotatable=0;points=[[0,0.5],[1,0.5]];portConstraint=eastwest;" vertex="1" parent="fTCJYqOAzkWOMCg7mj_o-16">
          <mxGeometry y="26" width="157.5" height="26" as="geometry" />
        </mxCell>
        <mxCell id="fTCJYqOAzkWOMCg7mj_o-18" value="대무자등록일자" style="text;align=left;verticalAlign=top;spacingLeft=4;spacingRight=4;overflow=hidden;rotatable=0;points=[[0,0.5],[1,0.5]];portConstraint=eastwest;rounded=0;shadow=0;html=0;" vertex="1" parent="fTCJYqOAzkWOMCg7mj_o-16">
          <mxGeometry y="52" width="157.5" height="26" as="geometry" />
        </mxCell>
        <mxCell id="fTCJYqOAzkWOMCg7mj_o-19" value="직급" style="text;align=left;verticalAlign=top;spacingLeft=4;spacingRight=4;overflow=hidden;rotatable=0;points=[[0,0.5],[1,0.5]];portConstraint=eastwest;rounded=0;shadow=0;html=0;" vertex="1" parent="fTCJYqOAzkWOMCg7mj_o-16">
          <mxGeometry y="78" width="157.5" height="26" as="geometry" />
        </mxCell>
        <mxCell id="fTCJYqOAzkWOMCg7mj_o-20" value="" style="line;html=1;strokeWidth=1;align=left;verticalAlign=middle;spacingTop=-1;spacingLeft=3;spacingRight=3;rotatable=0;labelPosition=right;points=[];portConstraint=eastwest;" vertex="1" parent="fTCJYqOAzkWOMCg7mj_o-16">
          <mxGeometry y="104" width="157.5" height="8" as="geometry" />
        </mxCell>
        <mxCell id="fTCJYqOAzkWOMCg7mj_o-21" value="대무자등록" style="text;align=left;verticalAlign=top;spacingLeft=4;spacingRight=4;overflow=hidden;rotatable=0;points=[[0,0.5],[1,0.5]];portConstraint=eastwest;fontStyle=0" vertex="1" parent="fTCJYqOAzkWOMCg7mj_o-16">
          <mxGeometry y="112" width="157.5" height="26" as="geometry" />
        </mxCell>
        <mxCell id="fTCJYqOAzkWOMCg7mj_o-110" value="대무자조회" style="text;align=left;verticalAlign=top;spacingLeft=4;spacingRight=4;overflow=hidden;rotatable=0;points=[[0,0.5],[1,0.5]];portConstraint=eastwest;" vertex="1" parent="fTCJYqOAzkWOMCg7mj_o-16">
          <mxGeometry y="138" width="157.5" height="26" as="geometry" />
        </mxCell>
        <mxCell id="fTCJYqOAzkWOMCg7mj_o-22" value="대무자변경" style="text;align=left;verticalAlign=top;spacingLeft=4;spacingRight=4;overflow=hidden;rotatable=0;points=[[0,0.5],[1,0.5]];portConstraint=eastwest;" vertex="1" parent="fTCJYqOAzkWOMCg7mj_o-16">
          <mxGeometry y="164" width="157.5" height="26" as="geometry" />
        </mxCell>
        <mxCell id="fTCJYqOAzkWOMCg7mj_o-111" value="대무자삭제" style="text;align=left;verticalAlign=top;spacingLeft=4;spacingRight=4;overflow=hidden;rotatable=0;points=[[0,0.5],[1,0.5]];portConstraint=eastwest;" vertex="1" parent="fTCJYqOAzkWOMCg7mj_o-16">
          <mxGeometry y="190" width="157.5" height="26" as="geometry" />
        </mxCell>
        <mxCell id="fTCJYqOAzkWOMCg7mj_o-124" style="rounded=0;orthogonalLoop=1;jettySize=auto;html=1;dashed=1;endArrow=block;endFill=0;" edge="1" parent="WIyWlLk6GJQsqaUBKTNV-1" source="fTCJYqOAzkWOMCg7mj_o-23">
          <mxGeometry relative="1" as="geometry">
            <mxPoint x="420" y="380" as="targetPoint" />
          </mxGeometry>
        </mxCell>
        <mxCell id="fTCJYqOAzkWOMCg7mj_o-23" value="담당자업무" style="swimlane;fontStyle=0;align=center;verticalAlign=top;childLayout=stackLayout;horizontal=1;startSize=26;horizontalStack=0;resizeParent=1;resizeLast=0;collapsible=1;marginBottom=0;rounded=0;shadow=0;strokeWidth=1;" vertex="1" parent="WIyWlLk6GJQsqaUBKTNV-1">
          <mxGeometry x="454" y="460" width="226" height="190" as="geometry">
            <mxRectangle x="130" y="380" width="160" height="26" as="alternateBounds" />
          </mxGeometry>
        </mxCell>
        <mxCell id="fTCJYqOAzkWOMCg7mj_o-24" value="담당자사번" style="text;align=left;verticalAlign=top;spacingLeft=4;spacingRight=4;overflow=hidden;rotatable=0;points=[[0,0.5],[1,0.5]];portConstraint=eastwest;" vertex="1" parent="fTCJYqOAzkWOMCg7mj_o-23">
          <mxGeometry y="26" width="226" height="26" as="geometry" />
        </mxCell>
        <mxCell id="fTCJYqOAzkWOMCg7mj_o-25" value="업무코드" style="text;align=left;verticalAlign=top;spacingLeft=4;spacingRight=4;overflow=hidden;rotatable=0;points=[[0,0.5],[1,0.5]];portConstraint=eastwest;rounded=0;shadow=0;html=0;" vertex="1" parent="fTCJYqOAzkWOMCg7mj_o-23">
          <mxGeometry y="52" width="226" height="26" as="geometry" />
        </mxCell>
        <mxCell id="fTCJYqOAzkWOMCg7mj_o-26" value="업무단계" style="text;align=left;verticalAlign=top;spacingLeft=4;spacingRight=4;overflow=hidden;rotatable=0;points=[[0,0.5],[1,0.5]];portConstraint=eastwest;rounded=0;shadow=0;html=0;" vertex="1" parent="fTCJYqOAzkWOMCg7mj_o-23">
          <mxGeometry y="78" width="226" height="26" as="geometry" />
        </mxCell>
        <mxCell id="fTCJYqOAzkWOMCg7mj_o-27" value="" style="line;html=1;strokeWidth=1;align=left;verticalAlign=middle;spacingTop=-1;spacingLeft=3;spacingRight=3;rotatable=0;labelPosition=right;points=[];portConstraint=eastwest;" vertex="1" parent="fTCJYqOAzkWOMCg7mj_o-23">
          <mxGeometry y="104" width="226" height="8" as="geometry" />
        </mxCell>
        <mxCell id="fTCJYqOAzkWOMCg7mj_o-93" value="업무단계조회" style="text;align=left;verticalAlign=top;spacingLeft=4;spacingRight=4;overflow=hidden;rotatable=0;points=[[0,0.5],[1,0.5]];portConstraint=eastwest;fontStyle=0" vertex="1" parent="fTCJYqOAzkWOMCg7mj_o-23">
          <mxGeometry y="112" width="226" height="26" as="geometry" />
        </mxCell>
        <mxCell id="fTCJYqOAzkWOMCg7mj_o-100" value="업무단계등록" style="text;align=left;verticalAlign=top;spacingLeft=4;spacingRight=4;overflow=hidden;rotatable=0;points=[[0,0.5],[1,0.5]];portConstraint=eastwest;fontStyle=0" vertex="1" parent="fTCJYqOAzkWOMCg7mj_o-23">
          <mxGeometry y="138" width="226" height="26" as="geometry" />
        </mxCell>
        <mxCell id="fTCJYqOAzkWOMCg7mj_o-28" value="서류등록" style="text;align=left;verticalAlign=top;spacingLeft=4;spacingRight=4;overflow=hidden;rotatable=0;points=[[0,0.5],[1,0.5]];portConstraint=eastwest;fontStyle=0" vertex="1" parent="fTCJYqOAzkWOMCg7mj_o-23">
          <mxGeometry y="164" width="226" height="26" as="geometry" />
        </mxCell>
        <mxCell id="fTCJYqOAzkWOMCg7mj_o-30" style="rounded=0;orthogonalLoop=1;jettySize=auto;html=1;entryX=0.5;entryY=0;entryDx=0;entryDy=0;dashed=1;exitX=0.5;exitY=1;exitDx=0;exitDy=0;" edge="1" parent="WIyWlLk6GJQsqaUBKTNV-1" source="fTCJYqOAzkWOMCg7mj_o-5" target="zkfFHV4jXpPFQw0GAbJ--13">
          <mxGeometry relative="1" as="geometry">
            <mxPoint x="801.56" y="397.98800000000006" as="sourcePoint" />
          </mxGeometry>
        </mxCell>
        <mxCell id="fTCJYqOAzkWOMCg7mj_o-32" style="rounded=0;orthogonalLoop=1;jettySize=auto;html=1;entryX=0.5;entryY=0;entryDx=0;entryDy=0;dashed=1;exitX=0.506;exitY=0.962;exitDx=0;exitDy=0;exitPerimeter=0;" edge="1" parent="WIyWlLk6GJQsqaUBKTNV-1" source="fTCJYqOAzkWOMCg7mj_o-74" target="fTCJYqOAzkWOMCg7mj_o-16">
          <mxGeometry relative="1" as="geometry">
            <mxPoint x="880" y="390" as="sourcePoint" />
          </mxGeometry>
        </mxCell>
        <mxCell id="fTCJYqOAzkWOMCg7mj_o-33" value="&lt;b&gt;담당자확인메소드&lt;/b&gt;를 통해 담당자 적합성을 판단한다.&lt;br&gt;1. 직급확인(대리이상)&lt;br&gt;2. 대무자 및 이관자 존재유무 확인&lt;br&gt;3. 이관자 존재 시 이관자이력을 통해 최근 이관자 확인&lt;br&gt;이때 이관자이력과 대무자가 확인되면 &lt;br&gt;클래스관계가 마무리된다.(Dependency)&lt;br&gt;&lt;b&gt;담당자 배정메소드&lt;/b&gt;를 통해 담당자를 결정한다.&lt;br&gt;그리디 알고리즘을 통해 &lt;br&gt;배정받은 업무수가 적은 담당자를 우선으로 배정한다." style="text;html=1;align=left;verticalAlign=middle;resizable=0;points=[];autosize=1;strokeColor=#d6b656;fillColor=#fff2cc;" vertex="1" parent="WIyWlLk6GJQsqaUBKTNV-1">
          <mxGeometry x="1038.25" y="210" width="280" height="140" as="geometry" />
        </mxCell>
        <mxCell id="fTCJYqOAzkWOMCg7mj_o-34" value="&lt;&lt;interface&gt;&gt;&#xa;업무" style="swimlane;fontStyle=2;align=center;verticalAlign=top;childLayout=stackLayout;horizontal=1;startSize=40;horizontalStack=0;resizeParent=1;resizeLast=0;collapsible=1;marginBottom=0;rounded=0;shadow=0;strokeWidth=1;" vertex="1" parent="WIyWlLk6GJQsqaUBKTNV-1">
          <mxGeometry x="347.25" y="215" width="145" height="160" as="geometry">
            <mxRectangle x="230" y="140" width="160" height="26" as="alternateBounds" />
          </mxGeometry>
        </mxCell>
        <mxCell id="fTCJYqOAzkWOMCg7mj_o-38" value="" style="line;html=1;strokeWidth=1;align=left;verticalAlign=middle;spacingTop=-1;spacingLeft=3;spacingRight=3;rotatable=0;labelPosition=right;points=[];portConstraint=eastwest;" vertex="1" parent="fTCJYqOAzkWOMCg7mj_o-34">
          <mxGeometry y="40" width="145" height="8" as="geometry" />
        </mxCell>
        <mxCell id="fTCJYqOAzkWOMCg7mj_o-39" value="업무등록&#xa;&#xa;업무조회&#xa;&#xa;업무변경&#xa;&#xa;업무삭제" style="text;align=left;verticalAlign=top;spacingLeft=4;spacingRight=4;overflow=hidden;rotatable=0;points=[[0,0.5],[1,0.5]];portConstraint=eastwest;" vertex="1" parent="fTCJYqOAzkWOMCg7mj_o-34">
          <mxGeometry y="48" width="145" height="112" as="geometry" />
        </mxCell>
        <mxCell id="fTCJYqOAzkWOMCg7mj_o-40" style="rounded=0;orthogonalLoop=1;jettySize=auto;html=1;exitX=1;exitY=0.5;exitDx=0;exitDy=0;entryX=-0.006;entryY=0.167;entryDx=0;entryDy=0;dashed=1;entryPerimeter=0;" edge="1" parent="WIyWlLk6GJQsqaUBKTNV-1" source="zkfFHV4jXpPFQw0GAbJ--24" target="fTCJYqOAzkWOMCg7mj_o-39">
          <mxGeometry relative="1" as="geometry" />
        </mxCell>
        <mxCell id="fTCJYqOAzkWOMCg7mj_o-41" value="업무 사용" style="text;html=1;align=center;verticalAlign=middle;resizable=0;points=[];autosize=1;strokeColor=none;fillColor=none;" vertex="1" parent="WIyWlLk6GJQsqaUBKTNV-1">
          <mxGeometry x="247.25" y="254" width="70" height="30" as="geometry" />
        </mxCell>
        <mxCell id="fTCJYqOAzkWOMCg7mj_o-44" value="고객클래스는 비대면업무 인터페이스를 사용하고&lt;br&gt;업무 클래스는 비대면업무를 구현함으로써&lt;br&gt;런타임 시점에 의존관계가 주입된다.&lt;br&gt;&lt;b&gt;업무접수 메소드&lt;/b&gt;는 고객이 호출한 &lt;br&gt;업무인터페이스를 통해 각 비대면업무메소드를 호출한다.&lt;br&gt;&lt;b&gt;파일업로드 메소드&lt;/b&gt;는 파일업로드 인터페이스를 통해&lt;br&gt;파일을 등록,조회,변경,삭제한다." style="text;html=1;align=left;verticalAlign=middle;resizable=0;points=[];autosize=1;strokeColor=#d6b656;fillColor=#fff2cc;" vertex="1" parent="WIyWlLk6GJQsqaUBKTNV-1">
          <mxGeometry x="17.25" y="92" width="290" height="110" as="geometry" />
        </mxCell>
        <mxCell id="fTCJYqOAzkWOMCg7mj_o-45" value="1" style="text;html=1;align=center;verticalAlign=middle;resizable=0;points=[];autosize=1;strokeColor=none;fillColor=none;" vertex="1" parent="WIyWlLk6GJQsqaUBKTNV-1">
          <mxGeometry x="227.25" y="278" width="30" height="30" as="geometry" />
        </mxCell>
        <mxCell id="fTCJYqOAzkWOMCg7mj_o-46" value="1" style="text;html=1;align=center;verticalAlign=middle;resizable=0;points=[];autosize=1;strokeColor=none;fillColor=none;" vertex="1" parent="WIyWlLk6GJQsqaUBKTNV-1">
          <mxGeometry x="317.25" y="282" width="30" height="30" as="geometry" />
        </mxCell>
        <mxCell id="fTCJYqOAzkWOMCg7mj_o-49" value="*" style="text;html=1;align=center;verticalAlign=middle;resizable=0;points=[];autosize=1;strokeColor=none;fillColor=none;" vertex="1" parent="WIyWlLk6GJQsqaUBKTNV-1">
          <mxGeometry x="230" y="523" width="30" height="30" as="geometry" />
        </mxCell>
        <mxCell id="fTCJYqOAzkWOMCg7mj_o-51" value="&lt;&lt;interface&gt;&gt;&#xa;파일업로드" style="swimlane;fontStyle=2;align=center;verticalAlign=top;childLayout=stackLayout;horizontal=1;startSize=40;horizontalStack=0;resizeParent=1;resizeLast=0;collapsible=1;marginBottom=0;rounded=0;shadow=0;strokeWidth=1;" vertex="1" parent="WIyWlLk6GJQsqaUBKTNV-1">
          <mxGeometry x="52.75" y="511" width="152.5" height="152" as="geometry">
            <mxRectangle x="230" y="140" width="160" height="26" as="alternateBounds" />
          </mxGeometry>
        </mxCell>
        <mxCell id="fTCJYqOAzkWOMCg7mj_o-52" value="" style="line;html=1;strokeWidth=1;align=left;verticalAlign=middle;spacingTop=-1;spacingLeft=3;spacingRight=3;rotatable=0;labelPosition=right;points=[];portConstraint=eastwest;" vertex="1" parent="fTCJYqOAzkWOMCg7mj_o-51">
          <mxGeometry y="40" width="152.5" height="8" as="geometry" />
        </mxCell>
        <mxCell id="fTCJYqOAzkWOMCg7mj_o-113" value="파일등록" style="text;align=left;verticalAlign=top;spacingLeft=4;spacingRight=4;overflow=hidden;rotatable=0;points=[[0,0.5],[1,0.5]];portConstraint=eastwest;fontStyle=0" vertex="1" parent="fTCJYqOAzkWOMCg7mj_o-51">
          <mxGeometry y="48" width="152.5" height="26" as="geometry" />
        </mxCell>
        <mxCell id="fTCJYqOAzkWOMCg7mj_o-116" value="파일조회" style="text;align=left;verticalAlign=top;spacingLeft=4;spacingRight=4;overflow=hidden;rotatable=0;points=[[0,0.5],[1,0.5]];portConstraint=eastwest;" vertex="1" parent="fTCJYqOAzkWOMCg7mj_o-51">
          <mxGeometry y="74" width="152.5" height="26" as="geometry" />
        </mxCell>
        <mxCell id="fTCJYqOAzkWOMCg7mj_o-115" value="파일변경" style="text;align=left;verticalAlign=top;spacingLeft=4;spacingRight=4;overflow=hidden;rotatable=0;points=[[0,0.5],[1,0.5]];portConstraint=eastwest;" vertex="1" parent="fTCJYqOAzkWOMCg7mj_o-51">
          <mxGeometry y="100" width="152.5" height="26" as="geometry" />
        </mxCell>
        <mxCell id="fTCJYqOAzkWOMCg7mj_o-114" value="파일삭제" style="text;align=left;verticalAlign=top;spacingLeft=4;spacingRight=4;overflow=hidden;rotatable=0;points=[[0,0.5],[1,0.5]];portConstraint=eastwest;" vertex="1" parent="fTCJYqOAzkWOMCg7mj_o-51">
          <mxGeometry y="126" width="152.5" height="26" as="geometry" />
        </mxCell>
        <mxCell id="fTCJYqOAzkWOMCg7mj_o-55" style="rounded=0;orthogonalLoop=1;jettySize=auto;html=1;exitX=0.5;exitY=1;exitDx=0;exitDy=0;entryX=0.5;entryY=0;entryDx=0;entryDy=0;dashed=1;" edge="1" parent="WIyWlLk6GJQsqaUBKTNV-1" source="zkfFHV4jXpPFQw0GAbJ--17" target="fTCJYqOAzkWOMCg7mj_o-51">
          <mxGeometry relative="1" as="geometry">
            <mxPoint x="85" y="410" as="sourcePoint" />
            <mxPoint x="180" y="410" as="targetPoint" />
          </mxGeometry>
        </mxCell>
        <mxCell id="fTCJYqOAzkWOMCg7mj_o-56" value="1" style="text;html=1;align=center;verticalAlign=middle;resizable=0;points=[];autosize=1;strokeColor=none;fillColor=none;" vertex="1" parent="WIyWlLk6GJQsqaUBKTNV-1">
          <mxGeometry x="103.25" y="332" width="30" height="30" as="geometry" />
        </mxCell>
        <mxCell id="fTCJYqOAzkWOMCg7mj_o-57" value="1" style="text;html=1;align=center;verticalAlign=middle;resizable=0;points=[];autosize=1;strokeColor=none;fillColor=none;" vertex="1" parent="WIyWlLk6GJQsqaUBKTNV-1">
          <mxGeometry x="106" y="480" width="30" height="30" as="geometry" />
        </mxCell>
        <mxCell id="fTCJYqOAzkWOMCg7mj_o-59" style="rounded=0;orthogonalLoop=1;jettySize=auto;html=1;endArrow=block;endFill=0;dashed=1;exitX=0.5;exitY=0;exitDx=0;exitDy=0;entryX=0.5;entryY=1;entryDx=0;entryDy=0;" edge="1" parent="WIyWlLk6GJQsqaUBKTNV-1" source="zkfFHV4jXpPFQw0GAbJ--6" target="fTCJYqOAzkWOMCg7mj_o-51">
          <mxGeometry relative="1" as="geometry">
            <mxPoint x="123.99999999999991" y="684.0039999999999" as="sourcePoint" />
            <mxPoint x="125" y="622" as="targetPoint" />
          </mxGeometry>
        </mxCell>
        <mxCell id="fTCJYqOAzkWOMCg7mj_o-60" value="1" style="text;html=1;align=center;verticalAlign=middle;resizable=0;points=[];autosize=1;strokeColor=none;fillColor=none;" vertex="1" parent="WIyWlLk6GJQsqaUBKTNV-1">
          <mxGeometry x="105" y="661" width="30" height="30" as="geometry" />
        </mxCell>
        <mxCell id="fTCJYqOAzkWOMCg7mj_o-61" value="*" style="text;html=1;align=center;verticalAlign=middle;resizable=0;points=[];autosize=1;strokeColor=none;fillColor=none;" vertex="1" parent="WIyWlLk6GJQsqaUBKTNV-1">
          <mxGeometry x="105" y="705" width="30" height="30" as="geometry" />
        </mxCell>
        <mxCell id="fTCJYqOAzkWOMCg7mj_o-62" value="고객과 담당자 별로&lt;br&gt;파일업로드 인터페이스를 두고&lt;br&gt;파일 클래스에서 &lt;br&gt;파일등록 및 관리 프로세스를 구현한다.&lt;br&gt;&lt;b&gt;파일업로드인터페이스 메소드&lt;/b&gt;에서 파일에대한 CURD를 실행한다." style="text;html=1;align=left;verticalAlign=middle;resizable=0;points=[];autosize=1;strokeColor=#d6b656;fillColor=#fff2cc;" vertex="1" parent="WIyWlLk6GJQsqaUBKTNV-1">
          <mxGeometry x="24" y="861" width="330" height="90" as="geometry" />
        </mxCell>
        <mxCell id="fTCJYqOAzkWOMCg7mj_o-75" value="담당자이관이력" style="swimlane;fontStyle=0;align=center;verticalAlign=top;childLayout=stackLayout;horizontal=1;startSize=26;horizontalStack=0;resizeParent=1;resizeLast=0;collapsible=1;marginBottom=0;rounded=0;shadow=0;strokeWidth=1;" vertex="1" parent="WIyWlLk6GJQsqaUBKTNV-1">
          <mxGeometry x="928.25" y="469" width="157.5" height="220" as="geometry">
            <mxRectangle x="130" y="380" width="160" height="26" as="alternateBounds" />
          </mxGeometry>
        </mxCell>
        <mxCell id="fTCJYqOAzkWOMCg7mj_o-76" value="이관자사번" style="text;align=left;verticalAlign=top;spacingLeft=4;spacingRight=4;overflow=hidden;rotatable=0;points=[[0,0.5],[1,0.5]];portConstraint=eastwest;" vertex="1" parent="fTCJYqOAzkWOMCg7mj_o-75">
          <mxGeometry y="26" width="157.5" height="26" as="geometry" />
        </mxCell>
        <mxCell id="fTCJYqOAzkWOMCg7mj_o-82" value="최초 이관자사번" style="text;align=left;verticalAlign=top;spacingLeft=4;spacingRight=4;overflow=hidden;rotatable=0;points=[[0,0.5],[1,0.5]];portConstraint=eastwest;" vertex="1" parent="fTCJYqOAzkWOMCg7mj_o-75">
          <mxGeometry y="52" width="157.5" height="26" as="geometry" />
        </mxCell>
        <mxCell id="fTCJYqOAzkWOMCg7mj_o-83" value="최근 이관자사번" style="text;align=left;verticalAlign=top;spacingLeft=4;spacingRight=4;overflow=hidden;rotatable=0;points=[[0,0.5],[1,0.5]];portConstraint=eastwest;" vertex="1" parent="fTCJYqOAzkWOMCg7mj_o-75">
          <mxGeometry y="78" width="157.5" height="26" as="geometry" />
        </mxCell>
        <mxCell id="fTCJYqOAzkWOMCg7mj_o-77" value="이관자등록일자" style="text;align=left;verticalAlign=top;spacingLeft=4;spacingRight=4;overflow=hidden;rotatable=0;points=[[0,0.5],[1,0.5]];portConstraint=eastwest;rounded=0;shadow=0;html=0;" vertex="1" parent="fTCJYqOAzkWOMCg7mj_o-75">
          <mxGeometry y="104" width="157.5" height="26" as="geometry" />
        </mxCell>
        <mxCell id="fTCJYqOAzkWOMCg7mj_o-78" value="직급" style="text;align=left;verticalAlign=top;spacingLeft=4;spacingRight=4;overflow=hidden;rotatable=0;points=[[0,0.5],[1,0.5]];portConstraint=eastwest;rounded=0;shadow=0;html=0;" vertex="1" parent="fTCJYqOAzkWOMCg7mj_o-75">
          <mxGeometry y="130" width="157.5" height="26" as="geometry" />
        </mxCell>
        <mxCell id="fTCJYqOAzkWOMCg7mj_o-79" value="" style="line;html=1;strokeWidth=1;align=left;verticalAlign=middle;spacingTop=-1;spacingLeft=3;spacingRight=3;rotatable=0;labelPosition=right;points=[];portConstraint=eastwest;" vertex="1" parent="fTCJYqOAzkWOMCg7mj_o-75">
          <mxGeometry y="156" width="157.5" height="8" as="geometry" />
        </mxCell>
        <mxCell id="fTCJYqOAzkWOMCg7mj_o-80" value="이관자등록" style="text;align=left;verticalAlign=top;spacingLeft=4;spacingRight=4;overflow=hidden;rotatable=0;points=[[0,0.5],[1,0.5]];portConstraint=eastwest;fontStyle=0" vertex="1" parent="fTCJYqOAzkWOMCg7mj_o-75">
          <mxGeometry y="164" width="157.5" height="26" as="geometry" />
        </mxCell>
        <mxCell id="fTCJYqOAzkWOMCg7mj_o-81" value="이관자조회" style="text;align=left;verticalAlign=top;spacingLeft=4;spacingRight=4;overflow=hidden;rotatable=0;points=[[0,0.5],[1,0.5]];portConstraint=eastwest;" vertex="1" parent="fTCJYqOAzkWOMCg7mj_o-75">
          <mxGeometry y="190" width="157.5" height="26" as="geometry" />
        </mxCell>
        <mxCell id="fTCJYqOAzkWOMCg7mj_o-85" style="rounded=0;orthogonalLoop=1;jettySize=auto;html=1;entryX=0.5;entryY=0;entryDx=0;entryDy=0;dashed=1;exitX=0.563;exitY=1.097;exitDx=0;exitDy=0;exitPerimeter=0;" edge="1" parent="WIyWlLk6GJQsqaUBKTNV-1" source="fTCJYqOAzkWOMCg7mj_o-74" target="fTCJYqOAzkWOMCg7mj_o-75">
          <mxGeometry relative="1" as="geometry">
            <mxPoint x="918.25" y="409" as="sourcePoint" />
            <mxPoint x="782.25" y="479" as="targetPoint" />
          </mxGeometry>
        </mxCell>
        <mxCell id="fTCJYqOAzkWOMCg7mj_o-86" value="각 메서드에서 대무자에대한 &lt;br&gt;CRUD를 진행한다." style="text;html=1;align=left;verticalAlign=middle;resizable=0;points=[];autosize=1;strokeColor=#d6b656;fillColor=#fff2cc;" vertex="1" parent="WIyWlLk6GJQsqaUBKTNV-1">
          <mxGeometry x="720" y="696" width="150" height="40" as="geometry" />
        </mxCell>
        <mxCell id="fTCJYqOAzkWOMCg7mj_o-88" value="&lt;b&gt;담당자이력조회메소드&lt;/b&gt;는 담당자사번을 key값으로&lt;br&gt;그동안 등록된 담당자이력을 list형식으로 조회한다.&lt;b&gt;&lt;br&gt;담당자이력등록메소드&lt;/b&gt;는 담당자클래스에서&lt;br&gt;담당자가 배정되면 담당자이력테이블에 저장한다.&amp;nbsp;" style="text;html=1;align=left;verticalAlign=middle;resizable=0;points=[];autosize=1;strokeColor=#d6b656;fillColor=#fff2cc;" vertex="1" parent="WIyWlLk6GJQsqaUBKTNV-1">
          <mxGeometry x="1178.25" y="677" width="260" height="70" as="geometry" />
        </mxCell>
        <mxCell id="fTCJYqOAzkWOMCg7mj_o-90" value="&lt;b&gt;이관자조회메소드&lt;/b&gt;&lt;br&gt;담당자사번을 Key로 &lt;br&gt;담당자이관이력을 조회한다.&lt;br&gt;&lt;b&gt;이관자등록메소드&lt;/b&gt;는&lt;br&gt;1.담당자이관이력테이블을 조회한다.&lt;br&gt;2. 최초이관자사번이 조회되면&amp;nbsp;&lt;br&gt;동일한 사번을 최초이관자서번에 등록하고&lt;br&gt;최근이관자사번에는 현재이관자로 등록한다." style="text;html=1;align=left;verticalAlign=middle;resizable=0;points=[];autosize=1;strokeColor=#d6b656;fillColor=#fff2cc;" vertex="1" parent="WIyWlLk6GJQsqaUBKTNV-1">
          <mxGeometry x="928.25" y="697" width="230" height="130" as="geometry" />
        </mxCell>
        <mxCell id="fTCJYqOAzkWOMCg7mj_o-92" value="&lt;b&gt;업무단계조회메소드는&lt;br&gt;&lt;/b&gt;배정,접수,검토중,처리완료,처리불가 단계를&lt;br&gt;조회한다.&lt;br&gt;&lt;b&gt;업무단계등록메소드&lt;/b&gt;는&amp;nbsp;&lt;br&gt;담당자 사번과 업무코드를 key로 &lt;br&gt;배정,접수,검토중,처리완료,처리불가 단계를&lt;br&gt;등록한다.&lt;br&gt;이때 처리완료 시 &lt;br&gt;업무클래스의 업무등록메소드를 호출하여&amp;nbsp;&lt;br&gt;업무상태를 완료로 변경한다.&lt;br&gt;&lt;b&gt;서류등록메소드&lt;/b&gt;는 담당자 업무실행 시&lt;br&gt;필요한 서류를 등록한다." style="text;html=1;align=left;verticalAlign=middle;resizable=0;points=[];autosize=1;strokeColor=#d6b656;fillColor=#fff2cc;" vertex="1" parent="WIyWlLk6GJQsqaUBKTNV-1">
          <mxGeometry x="450.25" y="663" width="230" height="190" as="geometry" />
        </mxCell>
        <mxCell id="fTCJYqOAzkWOMCg7mj_o-63" style="rounded=0;orthogonalLoop=1;jettySize=auto;html=1;entryX=1;entryY=0.5;entryDx=0;entryDy=0;exitX=0;exitY=0.5;exitDx=0;exitDy=0;" edge="1" parent="WIyWlLk6GJQsqaUBKTNV-1" source="fTCJYqOAzkWOMCg7mj_o-7">
          <mxGeometry relative="1" as="geometry">
            <mxPoint x="696.75" y="472" as="sourcePoint" />
            <mxPoint x="710" y="525" as="targetPoint" />
          </mxGeometry>
        </mxCell>
        <mxCell id="fTCJYqOAzkWOMCg7mj_o-95" style="rounded=0;orthogonalLoop=1;jettySize=auto;html=1;dashed=1;entryX=-0.033;entryY=0.9;entryDx=0;entryDy=0;entryPerimeter=0;exitX=0.416;exitY=1.077;exitDx=0;exitDy=0;exitPerimeter=0;" edge="1" parent="WIyWlLk6GJQsqaUBKTNV-1" source="fTCJYqOAzkWOMCg7mj_o-28" target="fTCJYqOAzkWOMCg7mj_o-99">
          <mxGeometry relative="1" as="geometry">
            <mxPoint x="450" y="500" as="sourcePoint" />
            <mxPoint x="200" y="530" as="targetPoint" />
            <Array as="points">
              <mxPoint x="240" y="650" />
            </Array>
          </mxGeometry>
        </mxCell>
        <mxCell id="fTCJYqOAzkWOMCg7mj_o-98" value="1" style="text;html=1;align=center;verticalAlign=middle;resizable=0;points=[];autosize=1;strokeColor=none;fillColor=none;" vertex="1" parent="WIyWlLk6GJQsqaUBKTNV-1">
          <mxGeometry x="307.25" y="430" width="30" height="30" as="geometry" />
        </mxCell>
        <mxCell id="fTCJYqOAzkWOMCg7mj_o-99" value="1" style="text;html=1;align=center;verticalAlign=middle;resizable=0;points=[];autosize=1;strokeColor=none;fillColor=none;" vertex="1" parent="WIyWlLk6GJQsqaUBKTNV-1">
          <mxGeometry x="207" y="505" width="30" height="30" as="geometry" />
        </mxCell>
        <mxCell id="fTCJYqOAzkWOMCg7mj_o-101" value="고객이 비대면업무호출 시 &lt;br&gt;각 업무가 처리되는 클래스이다.&lt;br&gt;-업무인터페이스 메소드&lt;br&gt;&lt;b style=&quot;border-color: var(--border-color);&quot;&gt;업무등록 메소드&lt;/b&gt;는&lt;br style=&quot;border-color: var(--border-color);&quot;&gt;업무코드, 업무배정일,&lt;br&gt;업무상태를 등록한다.&lt;br&gt;&lt;b style=&quot;border-color: var(--border-color);&quot;&gt;업무조회 메소드&lt;/b&gt;는&lt;br style=&quot;border-color: var(--border-color);&quot;&gt;업무코드, 업무배정일 및 &lt;br&gt;각 업무상태를 조회한다.&lt;br&gt;&lt;b&gt;업무변경 메소드&lt;/b&gt;는&lt;br&gt;업무상태를 접수,완료,취소 등의&lt;br&gt;상태로 변경한다." style="text;html=1;align=left;verticalAlign=middle;resizable=0;points=[];autosize=1;strokeColor=#d6b656;fillColor=#fff2cc;" vertex="1" parent="WIyWlLk6GJQsqaUBKTNV-1">
          <mxGeometry x="260" y="604" width="170" height="190" as="geometry" />
        </mxCell>
        <mxCell id="fTCJYqOAzkWOMCg7mj_o-107" style="rounded=0;orthogonalLoop=1;jettySize=auto;html=1;exitX=0;exitY=0.5;exitDx=0;exitDy=0;entryX=1;entryY=0.5;entryDx=0;entryDy=0;" edge="1" parent="WIyWlLk6GJQsqaUBKTNV-1" source="fTCJYqOAzkWOMCg7mj_o-26" target="zkfFHV4jXpPFQw0GAbJ--3">
          <mxGeometry relative="1" as="geometry">
            <mxPoint x="379.75" y="970" as="sourcePoint" />
            <mxPoint x="519.75" y="960" as="targetPoint" />
          </mxGeometry>
        </mxCell>
        <mxCell id="fTCJYqOAzkWOMCg7mj_o-112" value="파일인터페이스 구현" style="text;html=1;align=center;verticalAlign=middle;resizable=0;points=[];autosize=1;strokeColor=none;fillColor=none;" vertex="1" parent="WIyWlLk6GJQsqaUBKTNV-1">
          <mxGeometry x="121.25" y="684" width="120" height="30" as="geometry" />
        </mxCell>
        <mxCell id="fTCJYqOAzkWOMCg7mj_o-104" value="업무인터페이스 구현" style="text;html=1;align=center;verticalAlign=middle;resizable=0;points=[];autosize=1;strokeColor=none;fillColor=none;" vertex="1" parent="WIyWlLk6GJQsqaUBKTNV-1">
          <mxGeometry x="262.25" y="405" width="120" height="30" as="geometry" />
        </mxCell>
        <mxCell id="fTCJYqOAzkWOMCg7mj_o-122" value="" style="rounded=0;orthogonalLoop=1;jettySize=auto;html=1;entryX=0.493;entryY=1.033;entryDx=0;entryDy=0;entryPerimeter=0;endArrow=block;endFill=0;dashed=1;exitX=0.5;exitY=0;exitDx=0;exitDy=0;" edge="1" parent="WIyWlLk6GJQsqaUBKTNV-1" source="zkfFHV4jXpPFQw0GAbJ--0" target="fTCJYqOAzkWOMCg7mj_o-39">
          <mxGeometry relative="1" as="geometry">
            <mxPoint x="339" y="460" as="sourcePoint" />
            <mxPoint x="415" y="379" as="targetPoint" />
          </mxGeometry>
        </mxCell>
        <mxCell id="fTCJYqOAzkWOMCg7mj_o-48" value="1" style="text;html=1;align=center;verticalAlign=middle;resizable=0;points=[];autosize=1;strokeColor=none;fillColor=none;" vertex="1" parent="WIyWlLk6GJQsqaUBKTNV-1">
          <mxGeometry x="370" y="375" width="30" height="30" as="geometry" />
        </mxCell>
        <mxCell id="fTCJYqOAzkWOMCg7mj_o-125" value="1" style="text;html=1;align=center;verticalAlign=middle;resizable=0;points=[];autosize=1;strokeColor=none;fillColor=none;" vertex="1" parent="WIyWlLk6GJQsqaUBKTNV-1">
          <mxGeometry x="475" y="438" width="30" height="30" as="geometry" />
        </mxCell>
        <mxCell id="fTCJYqOAzkWOMCg7mj_o-126" value="1" style="text;html=1;align=center;verticalAlign=middle;resizable=0;points=[];autosize=1;strokeColor=none;fillColor=none;" vertex="1" parent="WIyWlLk6GJQsqaUBKTNV-1">
          <mxGeometry x="425" y="378" width="30" height="30" as="geometry" />
        </mxCell>
        <mxCell id="fTCJYqOAzkWOMCg7mj_o-127" value="업무인터페이스 구현" style="text;html=1;align=center;verticalAlign=middle;resizable=0;points=[];autosize=1;strokeColor=none;fillColor=none;" vertex="1" parent="WIyWlLk6GJQsqaUBKTNV-1">
          <mxGeometry x="450.25" y="401" width="120" height="30" as="geometry" />
        </mxCell>
      </root>
    </mxGraphModel>
  </diagram>
  <diagram id="kGa12kIktAQ7bRUt1Sex" name="페이지-2">
    <mxGraphModel dx="1706" dy="1140" grid="1" gridSize="10" guides="1" tooltips="1" connect="1" arrows="1" fold="1" page="1" pageScale="1" pageWidth="827" pageHeight="1169" math="0" shadow="0">
      <root>
        <mxCell id="0" />
        <mxCell id="1" parent="0" />
        <mxCell id="5LjnjNYHiEOxAkSZgBU3-1" value="비대면업무" style="swimlane;fontStyle=2;align=center;verticalAlign=top;childLayout=stackLayout;horizontal=1;startSize=26;horizontalStack=0;resizeParent=1;resizeLast=0;collapsible=1;marginBottom=0;rounded=0;shadow=0;strokeWidth=1;" vertex="1" parent="1">
          <mxGeometry x="605" y="208" width="160" height="138" as="geometry">
            <mxRectangle x="230" y="140" width="160" height="26" as="alternateBounds" />
          </mxGeometry>
        </mxCell>
        <mxCell id="5LjnjNYHiEOxAkSZgBU3-2" value="업무코드" style="text;align=left;verticalAlign=top;spacingLeft=4;spacingRight=4;overflow=hidden;rotatable=0;points=[[0,0.5],[1,0.5]];portConstraint=eastwest;" vertex="1" parent="5LjnjNYHiEOxAkSZgBU3-1">
          <mxGeometry y="26" width="160" height="26" as="geometry" />
        </mxCell>
        <mxCell id="5LjnjNYHiEOxAkSZgBU3-3" value="업무배정일" style="text;align=left;verticalAlign=top;spacingLeft=4;spacingRight=4;overflow=hidden;rotatable=0;points=[[0,0.5],[1,0.5]];portConstraint=eastwest;rounded=0;shadow=0;html=0;" vertex="1" parent="5LjnjNYHiEOxAkSZgBU3-1">
          <mxGeometry y="52" width="160" height="26" as="geometry" />
        </mxCell>
        <mxCell id="5LjnjNYHiEOxAkSZgBU3-4" value="업무상태" style="text;align=left;verticalAlign=top;spacingLeft=4;spacingRight=4;overflow=hidden;rotatable=0;points=[[0,0.5],[1,0.5]];portConstraint=eastwest;rounded=0;shadow=0;html=0;" vertex="1" parent="5LjnjNYHiEOxAkSZgBU3-1">
          <mxGeometry y="78" width="160" height="26" as="geometry" />
        </mxCell>
        <mxCell id="5LjnjNYHiEOxAkSZgBU3-5" value="" style="line;html=1;strokeWidth=1;align=left;verticalAlign=middle;spacingTop=-1;spacingLeft=3;spacingRight=3;rotatable=0;labelPosition=right;points=[];portConstraint=eastwest;" vertex="1" parent="5LjnjNYHiEOxAkSZgBU3-1">
          <mxGeometry y="104" width="160" height="8" as="geometry" />
        </mxCell>
        <mxCell id="5LjnjNYHiEOxAkSZgBU3-6" value="업무인터페이스 메소드 구현" style="text;align=left;verticalAlign=top;spacingLeft=4;spacingRight=4;overflow=hidden;rotatable=0;points=[[0,0.5],[1,0.5]];portConstraint=eastwest;" vertex="1" parent="5LjnjNYHiEOxAkSZgBU3-1">
          <mxGeometry y="112" width="160" height="26" as="geometry" />
        </mxCell>
        <mxCell id="5LjnjNYHiEOxAkSZgBU3-7" value="파일" style="swimlane;fontStyle=0;align=center;verticalAlign=top;childLayout=stackLayout;horizontal=1;startSize=26;horizontalStack=0;resizeParent=1;resizeLast=0;collapsible=1;marginBottom=0;rounded=0;shadow=0;strokeWidth=1;" vertex="1" parent="1">
          <mxGeometry x="24" y="730" width="210" height="121" as="geometry">
            <mxRectangle x="130" y="380" width="160" height="26" as="alternateBounds" />
          </mxGeometry>
        </mxCell>
        <mxCell id="5LjnjNYHiEOxAkSZgBU3-8" value="파일식별번호" style="text;align=left;verticalAlign=top;spacingLeft=4;spacingRight=4;overflow=hidden;rotatable=0;points=[[0,0.5],[1,0.5]];portConstraint=eastwest;" vertex="1" parent="5LjnjNYHiEOxAkSZgBU3-7">
          <mxGeometry y="26" width="210" height="26" as="geometry" />
        </mxCell>
        <mxCell id="5LjnjNYHiEOxAkSZgBU3-9" value="파일등록일자" style="text;align=left;verticalAlign=top;spacingLeft=4;spacingRight=4;overflow=hidden;rotatable=0;points=[[0,0.5],[1,0.5]];portConstraint=eastwest;rounded=0;shadow=0;html=0;" vertex="1" parent="5LjnjNYHiEOxAkSZgBU3-7">
          <mxGeometry y="52" width="210" height="26" as="geometry" />
        </mxCell>
        <mxCell id="5LjnjNYHiEOxAkSZgBU3-10" value="" style="line;html=1;strokeWidth=1;align=left;verticalAlign=middle;spacingTop=-1;spacingLeft=3;spacingRight=3;rotatable=0;labelPosition=right;points=[];portConstraint=eastwest;" vertex="1" parent="5LjnjNYHiEOxAkSZgBU3-7">
          <mxGeometry y="78" width="210" height="8" as="geometry" />
        </mxCell>
        <mxCell id="5LjnjNYHiEOxAkSZgBU3-11" value="파일업로드인터페이스 메소드 구현" style="text;align=left;verticalAlign=top;spacingLeft=4;spacingRight=4;overflow=hidden;rotatable=0;points=[[0,0.5],[1,0.5]];portConstraint=eastwest;" vertex="1" parent="5LjnjNYHiEOxAkSZgBU3-7">
          <mxGeometry y="86" width="210" height="26" as="geometry" />
        </mxCell>
        <mxCell id="5LjnjNYHiEOxAkSZgBU3-12" value="담당자이력" style="swimlane;fontStyle=0;align=center;verticalAlign=top;childLayout=stackLayout;horizontal=1;startSize=26;horizontalStack=0;resizeParent=1;resizeLast=0;collapsible=1;marginBottom=0;rounded=0;shadow=0;strokeWidth=1;" vertex="1" parent="1">
          <mxGeometry x="1178.25" y="469" width="160" height="198" as="geometry">
            <mxRectangle x="340" y="380" width="170" height="26" as="alternateBounds" />
          </mxGeometry>
        </mxCell>
        <mxCell id="5LjnjNYHiEOxAkSZgBU3-13" value="업무코드" style="text;align=left;verticalAlign=top;spacingLeft=4;spacingRight=4;overflow=hidden;rotatable=0;points=[[0,0.5],[1,0.5]];portConstraint=eastwest;" vertex="1" parent="5LjnjNYHiEOxAkSZgBU3-12">
          <mxGeometry y="26" width="160" height="26" as="geometry" />
        </mxCell>
        <mxCell id="5LjnjNYHiEOxAkSZgBU3-14" value="담당자사번" style="text;align=left;verticalAlign=top;spacingLeft=4;spacingRight=4;overflow=hidden;rotatable=0;points=[[0,0.5],[1,0.5]];portConstraint=eastwest;" vertex="1" parent="5LjnjNYHiEOxAkSZgBU3-12">
          <mxGeometry y="52" width="160" height="26" as="geometry" />
        </mxCell>
        <mxCell id="5LjnjNYHiEOxAkSZgBU3-15" value="담당자등록일" style="text;align=left;verticalAlign=top;spacingLeft=4;spacingRight=4;overflow=hidden;rotatable=0;points=[[0,0.5],[1,0.5]];portConstraint=eastwest;" vertex="1" parent="5LjnjNYHiEOxAkSZgBU3-12">
          <mxGeometry y="78" width="160" height="32" as="geometry" />
        </mxCell>
        <mxCell id="5LjnjNYHiEOxAkSZgBU3-16" value="직급" style="text;align=left;verticalAlign=top;spacingLeft=4;spacingRight=4;overflow=hidden;rotatable=0;points=[[0,0.5],[1,0.5]];portConstraint=eastwest;" vertex="1" parent="5LjnjNYHiEOxAkSZgBU3-12">
          <mxGeometry y="110" width="160" height="20" as="geometry" />
        </mxCell>
        <mxCell id="5LjnjNYHiEOxAkSZgBU3-17" value="" style="line;html=1;strokeWidth=1;align=left;verticalAlign=middle;spacingTop=-1;spacingLeft=3;spacingRight=3;rotatable=0;labelPosition=right;points=[];portConstraint=eastwest;" vertex="1" parent="5LjnjNYHiEOxAkSZgBU3-12">
          <mxGeometry y="130" width="160" height="8" as="geometry" />
        </mxCell>
        <mxCell id="5LjnjNYHiEOxAkSZgBU3-18" value="&amp;nbsp; 담당자이력조회" style="text;html=1;align=left;verticalAlign=middle;resizable=0;points=[];autosize=1;strokeColor=none;fillColor=none;" vertex="1" parent="5LjnjNYHiEOxAkSZgBU3-12">
          <mxGeometry y="138" width="160" height="30" as="geometry" />
        </mxCell>
        <mxCell id="5LjnjNYHiEOxAkSZgBU3-19" value="&amp;nbsp; 담당자이력등록" style="text;html=1;align=left;verticalAlign=middle;resizable=0;points=[];autosize=1;strokeColor=none;fillColor=none;" vertex="1" parent="5LjnjNYHiEOxAkSZgBU3-12">
          <mxGeometry y="168" width="160" height="30" as="geometry" />
        </mxCell>
        <mxCell id="5LjnjNYHiEOxAkSZgBU3-20" value="고객" style="swimlane;fontStyle=0;align=center;verticalAlign=top;childLayout=stackLayout;horizontal=1;startSize=26;horizontalStack=0;resizeParent=1;resizeLast=0;collapsible=1;marginBottom=0;rounded=0;shadow=0;strokeWidth=1;" vertex="1" parent="1">
          <mxGeometry x="17.25" y="208" width="220" height="130" as="geometry">
            <mxRectangle x="550" y="140" width="160" height="26" as="alternateBounds" />
          </mxGeometry>
        </mxCell>
        <mxCell id="5LjnjNYHiEOxAkSZgBU3-21" value="고객식별코드" style="text;align=left;verticalAlign=top;spacingLeft=4;spacingRight=4;overflow=hidden;rotatable=0;points=[[0,0.5],[1,0.5]];portConstraint=eastwest;" vertex="1" parent="5LjnjNYHiEOxAkSZgBU3-20">
          <mxGeometry y="26" width="220" height="26" as="geometry" />
        </mxCell>
        <mxCell id="5LjnjNYHiEOxAkSZgBU3-22" value="" style="line;html=1;strokeWidth=1;align=left;verticalAlign=middle;spacingTop=-1;spacingLeft=3;spacingRight=3;rotatable=0;labelPosition=right;points=[];portConstraint=eastwest;" vertex="1" parent="5LjnjNYHiEOxAkSZgBU3-20">
          <mxGeometry y="52" width="220" height="8" as="geometry" />
        </mxCell>
        <mxCell id="5LjnjNYHiEOxAkSZgBU3-23" value="업무접수" style="text;align=left;verticalAlign=top;spacingLeft=4;spacingRight=4;overflow=hidden;rotatable=0;points=[[0,0.5],[1,0.5]];portConstraint=eastwest;" vertex="1" parent="5LjnjNYHiEOxAkSZgBU3-20">
          <mxGeometry y="60" width="220" height="26" as="geometry" />
        </mxCell>
        <mxCell id="5LjnjNYHiEOxAkSZgBU3-24" value="파일업로드" style="text;align=left;verticalAlign=top;spacingLeft=4;spacingRight=4;overflow=hidden;rotatable=0;points=[[0,0.5],[1,0.5]];portConstraint=eastwest;" vertex="1" parent="5LjnjNYHiEOxAkSZgBU3-20">
          <mxGeometry y="86" width="220" height="26" as="geometry" />
        </mxCell>
        <mxCell id="5LjnjNYHiEOxAkSZgBU3-25" value="담당자" style="swimlane;fontStyle=0;align=center;verticalAlign=top;childLayout=stackLayout;horizontal=1;startSize=26;horizontalStack=0;resizeParent=1;resizeLast=0;collapsible=1;marginBottom=0;rounded=0;shadow=0;strokeWidth=1;" vertex="1" parent="1">
          <mxGeometry x="898.25" y="211" width="130" height="190" as="geometry">
            <mxRectangle x="130" y="380" width="160" height="26" as="alternateBounds" />
          </mxGeometry>
        </mxCell>
        <mxCell id="5LjnjNYHiEOxAkSZgBU3-26" value="담당자사번" style="text;align=left;verticalAlign=top;spacingLeft=4;spacingRight=4;overflow=hidden;rotatable=0;points=[[0,0.5],[1,0.5]];portConstraint=eastwest;" vertex="1" parent="5LjnjNYHiEOxAkSZgBU3-25">
          <mxGeometry y="26" width="130" height="26" as="geometry" />
        </mxCell>
        <mxCell id="5LjnjNYHiEOxAkSZgBU3-27" value="담당자등록일자" style="text;align=left;verticalAlign=top;spacingLeft=4;spacingRight=4;overflow=hidden;rotatable=0;points=[[0,0.5],[1,0.5]];portConstraint=eastwest;rounded=0;shadow=0;html=0;" vertex="1" parent="5LjnjNYHiEOxAkSZgBU3-25">
          <mxGeometry y="52" width="130" height="26" as="geometry" />
        </mxCell>
        <mxCell id="5LjnjNYHiEOxAkSZgBU3-28" value="직급" style="text;align=left;verticalAlign=top;spacingLeft=4;spacingRight=4;overflow=hidden;rotatable=0;points=[[0,0.5],[1,0.5]];portConstraint=eastwest;rounded=0;shadow=0;html=0;" vertex="1" parent="5LjnjNYHiEOxAkSZgBU3-25">
          <mxGeometry y="78" width="130" height="26" as="geometry" />
        </mxCell>
        <mxCell id="5LjnjNYHiEOxAkSZgBU3-29" value="" style="line;html=1;strokeWidth=1;align=left;verticalAlign=middle;spacingTop=-1;spacingLeft=3;spacingRight=3;rotatable=0;labelPosition=right;points=[];portConstraint=eastwest;" vertex="1" parent="5LjnjNYHiEOxAkSZgBU3-25">
          <mxGeometry y="104" width="130" height="8" as="geometry" />
        </mxCell>
        <mxCell id="5LjnjNYHiEOxAkSZgBU3-30" value="담당자확인" style="text;align=left;verticalAlign=top;spacingLeft=4;spacingRight=4;overflow=hidden;rotatable=0;points=[[0,0.5],[1,0.5]];portConstraint=eastwest;fontStyle=0" vertex="1" parent="5LjnjNYHiEOxAkSZgBU3-25">
          <mxGeometry y="112" width="130" height="26" as="geometry" />
        </mxCell>
        <mxCell id="5LjnjNYHiEOxAkSZgBU3-31" value="담당자배정" style="text;align=left;verticalAlign=top;spacingLeft=4;spacingRight=4;overflow=hidden;rotatable=0;points=[[0,0.5],[1,0.5]];portConstraint=eastwest;fontStyle=0" vertex="1" parent="5LjnjNYHiEOxAkSZgBU3-25">
          <mxGeometry y="138" width="130" height="26" as="geometry" />
        </mxCell>
        <mxCell id="5LjnjNYHiEOxAkSZgBU3-32" value="담당자이력등록" style="text;align=left;verticalAlign=top;spacingLeft=4;spacingRight=4;overflow=hidden;rotatable=0;points=[[0,0.5],[1,0.5]];portConstraint=eastwest;fontStyle=0" vertex="1" parent="5LjnjNYHiEOxAkSZgBU3-25">
          <mxGeometry y="164" width="130" height="26" as="geometry" />
        </mxCell>
        <mxCell id="5LjnjNYHiEOxAkSZgBU3-33" value="대무자" style="swimlane;fontStyle=0;align=center;verticalAlign=top;childLayout=stackLayout;horizontal=1;startSize=26;horizontalStack=0;resizeParent=1;resizeLast=0;collapsible=1;marginBottom=0;rounded=0;shadow=0;strokeWidth=1;" vertex="1" parent="1">
          <mxGeometry x="720" y="470" width="157.5" height="216" as="geometry">
            <mxRectangle x="130" y="380" width="160" height="26" as="alternateBounds" />
          </mxGeometry>
        </mxCell>
        <mxCell id="5LjnjNYHiEOxAkSZgBU3-34" value="대무자사번" style="text;align=left;verticalAlign=top;spacingLeft=4;spacingRight=4;overflow=hidden;rotatable=0;points=[[0,0.5],[1,0.5]];portConstraint=eastwest;" vertex="1" parent="5LjnjNYHiEOxAkSZgBU3-33">
          <mxGeometry y="26" width="157.5" height="26" as="geometry" />
        </mxCell>
        <mxCell id="5LjnjNYHiEOxAkSZgBU3-35" value="대무자등록일자" style="text;align=left;verticalAlign=top;spacingLeft=4;spacingRight=4;overflow=hidden;rotatable=0;points=[[0,0.5],[1,0.5]];portConstraint=eastwest;rounded=0;shadow=0;html=0;" vertex="1" parent="5LjnjNYHiEOxAkSZgBU3-33">
          <mxGeometry y="52" width="157.5" height="26" as="geometry" />
        </mxCell>
        <mxCell id="5LjnjNYHiEOxAkSZgBU3-36" value="직급" style="text;align=left;verticalAlign=top;spacingLeft=4;spacingRight=4;overflow=hidden;rotatable=0;points=[[0,0.5],[1,0.5]];portConstraint=eastwest;rounded=0;shadow=0;html=0;" vertex="1" parent="5LjnjNYHiEOxAkSZgBU3-33">
          <mxGeometry y="78" width="157.5" height="26" as="geometry" />
        </mxCell>
        <mxCell id="5LjnjNYHiEOxAkSZgBU3-37" value="" style="line;html=1;strokeWidth=1;align=left;verticalAlign=middle;spacingTop=-1;spacingLeft=3;spacingRight=3;rotatable=0;labelPosition=right;points=[];portConstraint=eastwest;" vertex="1" parent="5LjnjNYHiEOxAkSZgBU3-33">
          <mxGeometry y="104" width="157.5" height="8" as="geometry" />
        </mxCell>
        <mxCell id="5LjnjNYHiEOxAkSZgBU3-38" value="대무자등록" style="text;align=left;verticalAlign=top;spacingLeft=4;spacingRight=4;overflow=hidden;rotatable=0;points=[[0,0.5],[1,0.5]];portConstraint=eastwest;fontStyle=0" vertex="1" parent="5LjnjNYHiEOxAkSZgBU3-33">
          <mxGeometry y="112" width="157.5" height="26" as="geometry" />
        </mxCell>
        <mxCell id="5LjnjNYHiEOxAkSZgBU3-39" value="대무자조회" style="text;align=left;verticalAlign=top;spacingLeft=4;spacingRight=4;overflow=hidden;rotatable=0;points=[[0,0.5],[1,0.5]];portConstraint=eastwest;" vertex="1" parent="5LjnjNYHiEOxAkSZgBU3-33">
          <mxGeometry y="138" width="157.5" height="26" as="geometry" />
        </mxCell>
        <mxCell id="5LjnjNYHiEOxAkSZgBU3-40" value="대무자변경" style="text;align=left;verticalAlign=top;spacingLeft=4;spacingRight=4;overflow=hidden;rotatable=0;points=[[0,0.5],[1,0.5]];portConstraint=eastwest;" vertex="1" parent="5LjnjNYHiEOxAkSZgBU3-33">
          <mxGeometry y="164" width="157.5" height="26" as="geometry" />
        </mxCell>
        <mxCell id="5LjnjNYHiEOxAkSZgBU3-41" value="대무자삭제" style="text;align=left;verticalAlign=top;spacingLeft=4;spacingRight=4;overflow=hidden;rotatable=0;points=[[0,0.5],[1,0.5]];portConstraint=eastwest;" vertex="1" parent="5LjnjNYHiEOxAkSZgBU3-33">
          <mxGeometry y="190" width="157.5" height="26" as="geometry" />
        </mxCell>
        <mxCell id="5LjnjNYHiEOxAkSZgBU3-42" style="rounded=0;orthogonalLoop=1;jettySize=auto;html=1;dashed=1;endArrow=block;endFill=0;entryX=0.504;entryY=0.991;entryDx=0;entryDy=0;entryPerimeter=0;exitX=1.111;exitY=0.856;exitDx=0;exitDy=0;exitPerimeter=0;" edge="1" parent="1" source="5LjnjNYHiEOxAkSZgBU3-100" target="5LjnjNYHiEOxAkSZgBU3-56">
          <mxGeometry relative="1" as="geometry">
            <mxPoint x="420" y="370" as="targetPoint" />
          </mxGeometry>
        </mxCell>
        <mxCell id="5LjnjNYHiEOxAkSZgBU3-43" value="담당자업무" style="swimlane;fontStyle=0;align=center;verticalAlign=top;childLayout=stackLayout;horizontal=1;startSize=26;horizontalStack=0;resizeParent=1;resizeLast=0;collapsible=1;marginBottom=0;rounded=0;shadow=0;strokeWidth=1;" vertex="1" parent="1">
          <mxGeometry x="344.25" y="499" width="226" height="190" as="geometry">
            <mxRectangle x="130" y="380" width="160" height="26" as="alternateBounds" />
          </mxGeometry>
        </mxCell>
        <mxCell id="5LjnjNYHiEOxAkSZgBU3-44" value="담당자사번" style="text;align=left;verticalAlign=top;spacingLeft=4;spacingRight=4;overflow=hidden;rotatable=0;points=[[0,0.5],[1,0.5]];portConstraint=eastwest;" vertex="1" parent="5LjnjNYHiEOxAkSZgBU3-43">
          <mxGeometry y="26" width="226" height="26" as="geometry" />
        </mxCell>
        <mxCell id="5LjnjNYHiEOxAkSZgBU3-45" value="업무코드" style="text;align=left;verticalAlign=top;spacingLeft=4;spacingRight=4;overflow=hidden;rotatable=0;points=[[0,0.5],[1,0.5]];portConstraint=eastwest;rounded=0;shadow=0;html=0;" vertex="1" parent="5LjnjNYHiEOxAkSZgBU3-43">
          <mxGeometry y="52" width="226" height="26" as="geometry" />
        </mxCell>
        <mxCell id="5LjnjNYHiEOxAkSZgBU3-46" value="업무단계" style="text;align=left;verticalAlign=top;spacingLeft=4;spacingRight=4;overflow=hidden;rotatable=0;points=[[0,0.5],[1,0.5]];portConstraint=eastwest;rounded=0;shadow=0;html=0;" vertex="1" parent="5LjnjNYHiEOxAkSZgBU3-43">
          <mxGeometry y="78" width="226" height="26" as="geometry" />
        </mxCell>
        <mxCell id="5LjnjNYHiEOxAkSZgBU3-47" value="" style="line;html=1;strokeWidth=1;align=left;verticalAlign=middle;spacingTop=-1;spacingLeft=3;spacingRight=3;rotatable=0;labelPosition=right;points=[];portConstraint=eastwest;" vertex="1" parent="5LjnjNYHiEOxAkSZgBU3-43">
          <mxGeometry y="104" width="226" height="8" as="geometry" />
        </mxCell>
        <mxCell id="5LjnjNYHiEOxAkSZgBU3-48" value="업무단계조회" style="text;align=left;verticalAlign=top;spacingLeft=4;spacingRight=4;overflow=hidden;rotatable=0;points=[[0,0.5],[1,0.5]];portConstraint=eastwest;fontStyle=0" vertex="1" parent="5LjnjNYHiEOxAkSZgBU3-43">
          <mxGeometry y="112" width="226" height="26" as="geometry" />
        </mxCell>
        <mxCell id="5LjnjNYHiEOxAkSZgBU3-49" value="파일업로드" style="text;align=left;verticalAlign=top;spacingLeft=4;spacingRight=4;overflow=hidden;rotatable=0;points=[[0,0.5],[1,0.5]];portConstraint=eastwest;fontStyle=0" vertex="1" parent="5LjnjNYHiEOxAkSZgBU3-43">
          <mxGeometry y="138" width="226" height="26" as="geometry" />
        </mxCell>
        <mxCell id="5LjnjNYHiEOxAkSZgBU3-50" value="업무인터페이스 메소드 구현" style="text;align=left;verticalAlign=top;spacingLeft=4;spacingRight=4;overflow=hidden;rotatable=0;points=[[0,0.5],[1,0.5]];portConstraint=eastwest;fontStyle=0" vertex="1" parent="5LjnjNYHiEOxAkSZgBU3-43">
          <mxGeometry y="164" width="226" height="26" as="geometry" />
        </mxCell>
        <mxCell id="5LjnjNYHiEOxAkSZgBU3-51" style="rounded=0;orthogonalLoop=1;jettySize=auto;html=1;entryX=0.5;entryY=0;entryDx=0;entryDy=0;dashed=1;exitX=0.5;exitY=1;exitDx=0;exitDy=0;" edge="1" parent="1" source="5LjnjNYHiEOxAkSZgBU3-25" target="5LjnjNYHiEOxAkSZgBU3-12">
          <mxGeometry relative="1" as="geometry">
            <mxPoint x="801.56" y="397.98800000000006" as="sourcePoint" />
          </mxGeometry>
        </mxCell>
        <mxCell id="5LjnjNYHiEOxAkSZgBU3-52" style="rounded=0;orthogonalLoop=1;jettySize=auto;html=1;entryX=0.5;entryY=0;entryDx=0;entryDy=0;dashed=1;exitX=0.506;exitY=0.962;exitDx=0;exitDy=0;exitPerimeter=0;" edge="1" parent="1" source="5LjnjNYHiEOxAkSZgBU3-32" target="5LjnjNYHiEOxAkSZgBU3-33">
          <mxGeometry relative="1" as="geometry">
            <mxPoint x="880" y="390" as="sourcePoint" />
          </mxGeometry>
        </mxCell>
        <mxCell id="5LjnjNYHiEOxAkSZgBU3-53" value="&lt;b&gt;담당자확인메소드&lt;/b&gt;를 통해 담당자 적합성을 판단한다.&lt;br&gt;1. 직급확인(대리이상)&lt;br&gt;2. 대무자 및 이관자 존재유무 확인&lt;br&gt;3. 이관자 존재 시 이관자이력을 통해 최근 이관자 확인&lt;br&gt;이때 이관자이력과 대무자가 확인되면 &lt;br&gt;클래스관계가 마무리된다.(Dependency)&lt;br&gt;&lt;b&gt;담당자 배정메소드&lt;/b&gt;를 통해 담당자를 결정한다.&lt;br&gt;그리디 알고리즘을 통해 &lt;br&gt;배정받은 업무수가 적은 담당자를 우선으로 배정한다." style="text;html=1;align=left;verticalAlign=middle;resizable=0;points=[];autosize=1;strokeColor=#d6b656;fillColor=#fff2cc;" vertex="1" parent="1">
          <mxGeometry x="1038.25" y="210" width="280" height="140" as="geometry" />
        </mxCell>
        <mxCell id="5LjnjNYHiEOxAkSZgBU3-54" value="&lt;&lt;interface&gt;&gt;&#xa;업무" style="swimlane;fontStyle=2;align=center;verticalAlign=top;childLayout=stackLayout;horizontal=1;startSize=40;horizontalStack=0;resizeParent=1;resizeLast=0;collapsible=1;marginBottom=0;rounded=0;shadow=0;strokeWidth=1;" vertex="1" parent="1">
          <mxGeometry x="344.25" y="213" width="145" height="160" as="geometry">
            <mxRectangle x="230" y="140" width="160" height="26" as="alternateBounds" />
          </mxGeometry>
        </mxCell>
        <mxCell id="5LjnjNYHiEOxAkSZgBU3-55" value="" style="line;html=1;strokeWidth=1;align=left;verticalAlign=middle;spacingTop=-1;spacingLeft=3;spacingRight=3;rotatable=0;labelPosition=right;points=[];portConstraint=eastwest;" vertex="1" parent="5LjnjNYHiEOxAkSZgBU3-54">
          <mxGeometry y="40" width="145" height="8" as="geometry" />
        </mxCell>
        <mxCell id="5LjnjNYHiEOxAkSZgBU3-56" value="업무등록&#xa;&#xa;업무조회&#xa;&#xa;업무변경&#xa;&#xa;업무삭제" style="text;align=left;verticalAlign=top;spacingLeft=4;spacingRight=4;overflow=hidden;rotatable=0;points=[[0,0.5],[1,0.5]];portConstraint=eastwest;" vertex="1" parent="5LjnjNYHiEOxAkSZgBU3-54">
          <mxGeometry y="48" width="145" height="112" as="geometry" />
        </mxCell>
        <mxCell id="5LjnjNYHiEOxAkSZgBU3-57" style="rounded=0;orthogonalLoop=1;jettySize=auto;html=1;exitX=1;exitY=0.5;exitDx=0;exitDy=0;entryX=-0.006;entryY=0.167;entryDx=0;entryDy=0;dashed=1;entryPerimeter=0;" edge="1" parent="1" source="5LjnjNYHiEOxAkSZgBU3-23" target="5LjnjNYHiEOxAkSZgBU3-56">
          <mxGeometry relative="1" as="geometry" />
        </mxCell>
        <mxCell id="5LjnjNYHiEOxAkSZgBU3-58" value="업무 사용" style="text;html=1;align=center;verticalAlign=middle;resizable=0;points=[];autosize=1;strokeColor=none;fillColor=none;" vertex="1" parent="1">
          <mxGeometry x="247.25" y="254" width="70" height="30" as="geometry" />
        </mxCell>
        <mxCell id="5LjnjNYHiEOxAkSZgBU3-59" value="고객클래스는 비대면업무 인터페이스를 사용하고&lt;br&gt;업무 클래스는 비대면업무를 구현함으로써&lt;br&gt;런타임 시점에 의존관계가 주입된다.&lt;br&gt;&lt;b&gt;업무접수 메소드&lt;/b&gt;는 고객이 호출한 &lt;br&gt;업무인터페이스를 통해 각 비대면업무메소드를 호출한다.&lt;br&gt;&lt;b&gt;파일업로드 메소드&lt;/b&gt;는 파일업로드 인터페이스를 통해&lt;br&gt;파일을 등록,조회,변경,삭제한다." style="text;html=1;align=left;verticalAlign=middle;resizable=0;points=[];autosize=1;strokeColor=#d6b656;fillColor=#fff2cc;" vertex="1" parent="1">
          <mxGeometry x="17.25" y="92" width="290" height="110" as="geometry" />
        </mxCell>
        <mxCell id="5LjnjNYHiEOxAkSZgBU3-60" value="1" style="text;html=1;align=center;verticalAlign=middle;resizable=0;points=[];autosize=1;strokeColor=none;fillColor=none;" vertex="1" parent="1">
          <mxGeometry x="227.25" y="278" width="30" height="30" as="geometry" />
        </mxCell>
        <mxCell id="5LjnjNYHiEOxAkSZgBU3-61" value="*" style="text;html=1;align=center;verticalAlign=middle;resizable=0;points=[];autosize=1;strokeColor=none;fillColor=none;" vertex="1" parent="1">
          <mxGeometry x="317.25" y="282" width="30" height="30" as="geometry" />
        </mxCell>
        <mxCell id="5LjnjNYHiEOxAkSZgBU3-62" value="*" style="text;html=1;align=center;verticalAlign=middle;resizable=0;points=[];autosize=1;strokeColor=none;fillColor=none;" vertex="1" parent="1">
          <mxGeometry x="230" y="523" width="30" height="30" as="geometry" />
        </mxCell>
        <mxCell id="5LjnjNYHiEOxAkSZgBU3-63" value="&lt;&lt;interface&gt;&gt;&#xa;파일업로드" style="swimlane;fontStyle=2;align=center;verticalAlign=top;childLayout=stackLayout;horizontal=1;startSize=40;horizontalStack=0;resizeParent=1;resizeLast=0;collapsible=1;marginBottom=0;rounded=0;shadow=0;strokeWidth=1;" vertex="1" parent="1">
          <mxGeometry x="52.75" y="511" width="152.5" height="152" as="geometry">
            <mxRectangle x="230" y="140" width="160" height="26" as="alternateBounds" />
          </mxGeometry>
        </mxCell>
        <mxCell id="5LjnjNYHiEOxAkSZgBU3-64" value="" style="line;html=1;strokeWidth=1;align=left;verticalAlign=middle;spacingTop=-1;spacingLeft=3;spacingRight=3;rotatable=0;labelPosition=right;points=[];portConstraint=eastwest;" vertex="1" parent="5LjnjNYHiEOxAkSZgBU3-63">
          <mxGeometry y="40" width="152.5" height="8" as="geometry" />
        </mxCell>
        <mxCell id="5LjnjNYHiEOxAkSZgBU3-65" value="파일등록" style="text;align=left;verticalAlign=top;spacingLeft=4;spacingRight=4;overflow=hidden;rotatable=0;points=[[0,0.5],[1,0.5]];portConstraint=eastwest;fontStyle=0" vertex="1" parent="5LjnjNYHiEOxAkSZgBU3-63">
          <mxGeometry y="48" width="152.5" height="26" as="geometry" />
        </mxCell>
        <mxCell id="5LjnjNYHiEOxAkSZgBU3-66" value="파일조회" style="text;align=left;verticalAlign=top;spacingLeft=4;spacingRight=4;overflow=hidden;rotatable=0;points=[[0,0.5],[1,0.5]];portConstraint=eastwest;" vertex="1" parent="5LjnjNYHiEOxAkSZgBU3-63">
          <mxGeometry y="74" width="152.5" height="26" as="geometry" />
        </mxCell>
        <mxCell id="5LjnjNYHiEOxAkSZgBU3-67" value="파일변경" style="text;align=left;verticalAlign=top;spacingLeft=4;spacingRight=4;overflow=hidden;rotatable=0;points=[[0,0.5],[1,0.5]];portConstraint=eastwest;" vertex="1" parent="5LjnjNYHiEOxAkSZgBU3-63">
          <mxGeometry y="100" width="152.5" height="26" as="geometry" />
        </mxCell>
        <mxCell id="5LjnjNYHiEOxAkSZgBU3-68" value="파일삭제" style="text;align=left;verticalAlign=top;spacingLeft=4;spacingRight=4;overflow=hidden;rotatable=0;points=[[0,0.5],[1,0.5]];portConstraint=eastwest;" vertex="1" parent="5LjnjNYHiEOxAkSZgBU3-63">
          <mxGeometry y="126" width="152.5" height="26" as="geometry" />
        </mxCell>
        <mxCell id="5LjnjNYHiEOxAkSZgBU3-69" style="rounded=0;orthogonalLoop=1;jettySize=auto;html=1;exitX=0.5;exitY=1;exitDx=0;exitDy=0;entryX=0.5;entryY=0;entryDx=0;entryDy=0;dashed=1;" edge="1" parent="1" source="5LjnjNYHiEOxAkSZgBU3-20" target="5LjnjNYHiEOxAkSZgBU3-63">
          <mxGeometry relative="1" as="geometry">
            <mxPoint x="85" y="410" as="sourcePoint" />
            <mxPoint x="180" y="410" as="targetPoint" />
          </mxGeometry>
        </mxCell>
        <mxCell id="5LjnjNYHiEOxAkSZgBU3-70" value="1" style="text;html=1;align=center;verticalAlign=middle;resizable=0;points=[];autosize=1;strokeColor=none;fillColor=none;" vertex="1" parent="1">
          <mxGeometry x="103.25" y="332" width="30" height="30" as="geometry" />
        </mxCell>
        <mxCell id="5LjnjNYHiEOxAkSZgBU3-71" value="*" style="text;html=1;align=center;verticalAlign=middle;resizable=0;points=[];autosize=1;strokeColor=none;fillColor=none;" vertex="1" parent="1">
          <mxGeometry x="106" y="480" width="30" height="30" as="geometry" />
        </mxCell>
        <mxCell id="5LjnjNYHiEOxAkSZgBU3-72" style="rounded=0;orthogonalLoop=1;jettySize=auto;html=1;endArrow=block;endFill=0;dashed=1;exitX=0.5;exitY=0;exitDx=0;exitDy=0;entryX=0.5;entryY=1;entryDx=0;entryDy=0;" edge="1" parent="1" source="5LjnjNYHiEOxAkSZgBU3-7" target="5LjnjNYHiEOxAkSZgBU3-63">
          <mxGeometry relative="1" as="geometry">
            <mxPoint x="123.99999999999991" y="684.0039999999999" as="sourcePoint" />
            <mxPoint x="125" y="622" as="targetPoint" />
          </mxGeometry>
        </mxCell>
        <mxCell id="5LjnjNYHiEOxAkSZgBU3-73" value="1" style="text;html=1;align=center;verticalAlign=middle;resizable=0;points=[];autosize=1;strokeColor=none;fillColor=none;" vertex="1" parent="1">
          <mxGeometry x="105" y="661" width="30" height="30" as="geometry" />
        </mxCell>
        <mxCell id="5LjnjNYHiEOxAkSZgBU3-74" value="1" style="text;html=1;align=center;verticalAlign=middle;resizable=0;points=[];autosize=1;strokeColor=none;fillColor=none;" vertex="1" parent="1">
          <mxGeometry x="105" y="705" width="30" height="30" as="geometry" />
        </mxCell>
        <mxCell id="5LjnjNYHiEOxAkSZgBU3-75" value="고객과 담당자 별로&lt;br&gt;파일업로드 인터페이스를 두고&lt;br&gt;파일 클래스에서 &lt;br&gt;파일등록 및 관리 프로세스를 구현한다.&lt;br&gt;&lt;b&gt;파일업로드인터페이스 메소드&lt;/b&gt;에서 &lt;br&gt;파일에대한 CURD를 실행한다." style="text;html=1;align=left;verticalAlign=middle;resizable=0;points=[];autosize=1;strokeColor=#d6b656;fillColor=#fff2cc;" vertex="1" parent="1">
          <mxGeometry x="24" y="856" width="210" height="100" as="geometry" />
        </mxCell>
        <mxCell id="5LjnjNYHiEOxAkSZgBU3-76" value="담당자이관이력" style="swimlane;fontStyle=0;align=center;verticalAlign=top;childLayout=stackLayout;horizontal=1;startSize=26;horizontalStack=0;resizeParent=1;resizeLast=0;collapsible=1;marginBottom=0;rounded=0;shadow=0;strokeWidth=1;" vertex="1" parent="1">
          <mxGeometry x="928.25" y="469" width="157.5" height="220" as="geometry">
            <mxRectangle x="130" y="380" width="160" height="26" as="alternateBounds" />
          </mxGeometry>
        </mxCell>
        <mxCell id="5LjnjNYHiEOxAkSZgBU3-77" value="이관자사번" style="text;align=left;verticalAlign=top;spacingLeft=4;spacingRight=4;overflow=hidden;rotatable=0;points=[[0,0.5],[1,0.5]];portConstraint=eastwest;" vertex="1" parent="5LjnjNYHiEOxAkSZgBU3-76">
          <mxGeometry y="26" width="157.5" height="26" as="geometry" />
        </mxCell>
        <mxCell id="5LjnjNYHiEOxAkSZgBU3-78" value="최초 이관자사번" style="text;align=left;verticalAlign=top;spacingLeft=4;spacingRight=4;overflow=hidden;rotatable=0;points=[[0,0.5],[1,0.5]];portConstraint=eastwest;" vertex="1" parent="5LjnjNYHiEOxAkSZgBU3-76">
          <mxGeometry y="52" width="157.5" height="26" as="geometry" />
        </mxCell>
        <mxCell id="5LjnjNYHiEOxAkSZgBU3-79" value="최근 이관자사번" style="text;align=left;verticalAlign=top;spacingLeft=4;spacingRight=4;overflow=hidden;rotatable=0;points=[[0,0.5],[1,0.5]];portConstraint=eastwest;" vertex="1" parent="5LjnjNYHiEOxAkSZgBU3-76">
          <mxGeometry y="78" width="157.5" height="26" as="geometry" />
        </mxCell>
        <mxCell id="5LjnjNYHiEOxAkSZgBU3-80" value="이관자등록일자" style="text;align=left;verticalAlign=top;spacingLeft=4;spacingRight=4;overflow=hidden;rotatable=0;points=[[0,0.5],[1,0.5]];portConstraint=eastwest;rounded=0;shadow=0;html=0;" vertex="1" parent="5LjnjNYHiEOxAkSZgBU3-76">
          <mxGeometry y="104" width="157.5" height="26" as="geometry" />
        </mxCell>
        <mxCell id="5LjnjNYHiEOxAkSZgBU3-81" value="직급" style="text;align=left;verticalAlign=top;spacingLeft=4;spacingRight=4;overflow=hidden;rotatable=0;points=[[0,0.5],[1,0.5]];portConstraint=eastwest;rounded=0;shadow=0;html=0;" vertex="1" parent="5LjnjNYHiEOxAkSZgBU3-76">
          <mxGeometry y="130" width="157.5" height="26" as="geometry" />
        </mxCell>
        <mxCell id="5LjnjNYHiEOxAkSZgBU3-82" value="" style="line;html=1;strokeWidth=1;align=left;verticalAlign=middle;spacingTop=-1;spacingLeft=3;spacingRight=3;rotatable=0;labelPosition=right;points=[];portConstraint=eastwest;" vertex="1" parent="5LjnjNYHiEOxAkSZgBU3-76">
          <mxGeometry y="156" width="157.5" height="8" as="geometry" />
        </mxCell>
        <mxCell id="5LjnjNYHiEOxAkSZgBU3-83" value="이관자등록" style="text;align=left;verticalAlign=top;spacingLeft=4;spacingRight=4;overflow=hidden;rotatable=0;points=[[0,0.5],[1,0.5]];portConstraint=eastwest;fontStyle=0" vertex="1" parent="5LjnjNYHiEOxAkSZgBU3-76">
          <mxGeometry y="164" width="157.5" height="26" as="geometry" />
        </mxCell>
        <mxCell id="5LjnjNYHiEOxAkSZgBU3-84" value="이관자조회" style="text;align=left;verticalAlign=top;spacingLeft=4;spacingRight=4;overflow=hidden;rotatable=0;points=[[0,0.5],[1,0.5]];portConstraint=eastwest;" vertex="1" parent="5LjnjNYHiEOxAkSZgBU3-76">
          <mxGeometry y="190" width="157.5" height="26" as="geometry" />
        </mxCell>
        <mxCell id="5LjnjNYHiEOxAkSZgBU3-85" style="rounded=0;orthogonalLoop=1;jettySize=auto;html=1;entryX=0.5;entryY=0;entryDx=0;entryDy=0;dashed=1;exitX=0.563;exitY=1.097;exitDx=0;exitDy=0;exitPerimeter=0;" edge="1" parent="1" source="5LjnjNYHiEOxAkSZgBU3-32" target="5LjnjNYHiEOxAkSZgBU3-76">
          <mxGeometry relative="1" as="geometry">
            <mxPoint x="918.25" y="409" as="sourcePoint" />
            <mxPoint x="782.25" y="479" as="targetPoint" />
          </mxGeometry>
        </mxCell>
        <mxCell id="5LjnjNYHiEOxAkSZgBU3-86" value="각 메서드에서 대무자에대한 &lt;br&gt;CRUD를 진행한다." style="text;html=1;align=left;verticalAlign=middle;resizable=0;points=[];autosize=1;strokeColor=#d6b656;fillColor=#fff2cc;" vertex="1" parent="1">
          <mxGeometry x="720" y="696" width="150" height="40" as="geometry" />
        </mxCell>
        <mxCell id="5LjnjNYHiEOxAkSZgBU3-87" value="&lt;b&gt;담당자이력조회메소드&lt;/b&gt;는 담당자사번을 key값으로&lt;br&gt;그동안 등록된 담당자이력을 list형식으로 조회한다.&lt;b&gt;&lt;br&gt;담당자이력등록메소드&lt;/b&gt;는 담당자클래스에서&lt;br&gt;담당자가 배정되면 담당자이력테이블에 저장한다.&amp;nbsp;" style="text;html=1;align=left;verticalAlign=middle;resizable=0;points=[];autosize=1;strokeColor=#d6b656;fillColor=#fff2cc;" vertex="1" parent="1">
          <mxGeometry x="1178.25" y="677" width="260" height="70" as="geometry" />
        </mxCell>
        <mxCell id="5LjnjNYHiEOxAkSZgBU3-88" value="&lt;b&gt;이관자조회메소드&lt;/b&gt;&lt;br&gt;담당자사번을 Key로 &lt;br&gt;담당자이관이력을 조회한다.&lt;br&gt;&lt;b&gt;이관자등록메소드&lt;/b&gt;는&lt;br&gt;1.담당자이관이력테이블을 조회한다.&lt;br&gt;2. 최초이관자사번이 조회되면&amp;nbsp;&lt;br&gt;동일한 사번을 최초이관자서번에 등록하고&lt;br&gt;최근이관자사번에는 현재이관자로 등록한다." style="text;html=1;align=left;verticalAlign=middle;resizable=0;points=[];autosize=1;strokeColor=#d6b656;fillColor=#fff2cc;" vertex="1" parent="1">
          <mxGeometry x="928.25" y="697" width="230" height="130" as="geometry" />
        </mxCell>
        <mxCell id="5LjnjNYHiEOxAkSZgBU3-89" value="&lt;b&gt;-업무인터페이스 메소드&lt;br&gt;업무단계조회메소드는&lt;br&gt;&lt;/b&gt;배정,접수,검토중,처리완료,처리불가 단계를&lt;br&gt;조회한다.&lt;br&gt;&lt;b&gt;업무단계등록메소드&lt;/b&gt;는&amp;nbsp;&lt;br&gt;담당자 사번과 업무코드를 key로 &lt;br&gt;배정,접수,검토중,처리완료,처리불가 단계를&lt;br&gt;등록한다.&lt;br&gt;이때 처리완료 시 &lt;br&gt;업무클래스의 업무등록메소드를 호출하여&amp;nbsp;&lt;br&gt;업무상태를 완료로 변경한다.&lt;br&gt;&lt;b&gt;서류등록메소드&lt;/b&gt;는 담당자 업무실행 시&lt;br&gt;필요한 서류를 등록한다." style="text;html=1;align=left;verticalAlign=middle;resizable=0;points=[];autosize=1;strokeColor=#d6b656;fillColor=#fff2cc;" vertex="1" parent="1">
          <mxGeometry x="347.25" y="697" width="230" height="200" as="geometry" />
        </mxCell>
        <mxCell id="5LjnjNYHiEOxAkSZgBU3-90" style="rounded=0;orthogonalLoop=1;jettySize=auto;html=1;entryX=1;entryY=0.5;entryDx=0;entryDy=0;exitX=0;exitY=0.5;exitDx=0;exitDy=0;edgeStyle=orthogonalEdgeStyle;" edge="1" parent="1" source="5LjnjNYHiEOxAkSZgBU3-27" target="5LjnjNYHiEOxAkSZgBU3-46">
          <mxGeometry relative="1" as="geometry">
            <mxPoint x="696.75" y="472" as="sourcePoint" />
            <mxPoint x="710" y="525" as="targetPoint" />
            <Array as="points">
              <mxPoint x="880" y="276" />
              <mxPoint x="880" y="400" />
              <mxPoint x="690" y="400" />
              <mxPoint x="690" y="590" />
            </Array>
          </mxGeometry>
        </mxCell>
        <mxCell id="5LjnjNYHiEOxAkSZgBU3-91" style="rounded=0;orthogonalLoop=1;jettySize=auto;html=1;dashed=1;exitX=0;exitY=0.5;exitDx=0;exitDy=0;entryX=1.001;entryY=0.179;entryDx=0;entryDy=0;entryPerimeter=0;" edge="1" parent="1" source="5LjnjNYHiEOxAkSZgBU3-46" target="5LjnjNYHiEOxAkSZgBU3-66">
          <mxGeometry relative="1" as="geometry">
            <mxPoint x="570" y="650" as="sourcePoint" />
            <mxPoint x="210" y="590" as="targetPoint" />
          </mxGeometry>
        </mxCell>
        <mxCell id="5LjnjNYHiEOxAkSZgBU3-92" value="1" style="text;html=1;align=center;verticalAlign=middle;resizable=0;points=[];autosize=1;strokeColor=none;fillColor=none;" vertex="1" parent="1">
          <mxGeometry x="678.25" y="45" width="30" height="30" as="geometry" />
        </mxCell>
        <mxCell id="5LjnjNYHiEOxAkSZgBU3-93" value="1" style="text;html=1;align=center;verticalAlign=middle;resizable=0;points=[];autosize=1;strokeColor=none;fillColor=none;" vertex="1" parent="1">
          <mxGeometry x="207" y="505" width="30" height="30" as="geometry" />
        </mxCell>
        <mxCell id="5LjnjNYHiEOxAkSZgBU3-94" value="고객이 비대면업무호출 시 &lt;br&gt;각 업무가 처리되는 클래스이다.&lt;br&gt;&lt;b&gt;-업무인터페이스 메소드&lt;/b&gt;&lt;br&gt;&lt;b style=&quot;border-color: var(--border-color);&quot;&gt;업무등록 메소드&lt;/b&gt;는&lt;br style=&quot;border-color: var(--border-color);&quot;&gt;업무코드, 업무배정일,&lt;br&gt;업무상태를 등록한다.&lt;br&gt;&lt;b style=&quot;border-color: var(--border-color);&quot;&gt;업무조회 메소드&lt;/b&gt;는&lt;br style=&quot;border-color: var(--border-color);&quot;&gt;업무코드, 업무배정일 및 &lt;br&gt;각 업무상태를 조회한다.&lt;br&gt;&lt;b&gt;업무변경 메소드&lt;/b&gt;는&lt;br&gt;업무상태를 접수,완료,취소 등의&lt;br&gt;상태로 변경한다." style="text;html=1;align=left;verticalAlign=middle;resizable=0;points=[];autosize=1;strokeColor=#d6b656;fillColor=#fff2cc;" vertex="1" parent="1">
          <mxGeometry x="600" y="12" width="170" height="190" as="geometry" />
        </mxCell>
        <mxCell id="5LjnjNYHiEOxAkSZgBU3-95" style="rounded=0;orthogonalLoop=1;jettySize=auto;html=1;exitX=0.5;exitY=0;exitDx=0;exitDy=0;entryX=0.452;entryY=1.077;entryDx=0;entryDy=0;entryPerimeter=0;" edge="1" parent="1" source="5LjnjNYHiEOxAkSZgBU3-43" target="5LjnjNYHiEOxAkSZgBU3-6">
          <mxGeometry relative="1" as="geometry">
            <mxPoint x="379.75" y="970" as="sourcePoint" />
            <mxPoint x="600" y="360" as="targetPoint" />
            <Array as="points">
              <mxPoint x="457" y="450" />
              <mxPoint x="677" y="450" />
            </Array>
          </mxGeometry>
        </mxCell>
        <mxCell id="5LjnjNYHiEOxAkSZgBU3-96" value="파일인터페이스 구현" style="text;html=1;align=center;verticalAlign=middle;resizable=0;points=[];autosize=1;strokeColor=none;fillColor=none;" vertex="1" parent="1">
          <mxGeometry x="121.25" y="684" width="120" height="30" as="geometry" />
        </mxCell>
        <mxCell id="5LjnjNYHiEOxAkSZgBU3-97" value="업무인터페이스 구현" style="text;html=1;align=center;verticalAlign=middle;resizable=0;points=[];autosize=1;strokeColor=none;fillColor=none;" vertex="1" parent="1">
          <mxGeometry x="489.25" y="240" width="120" height="30" as="geometry" />
        </mxCell>
        <mxCell id="5LjnjNYHiEOxAkSZgBU3-98" value="" style="rounded=0;orthogonalLoop=1;jettySize=auto;html=1;endArrow=block;endFill=0;dashed=1;exitX=0;exitY=0.5;exitDx=0;exitDy=0;" edge="1" parent="1" source="5LjnjNYHiEOxAkSZgBU3-3">
          <mxGeometry relative="1" as="geometry">
            <mxPoint x="710" y="75" as="sourcePoint" />
            <mxPoint x="490" y="273" as="targetPoint" />
          </mxGeometry>
        </mxCell>
        <mxCell id="5LjnjNYHiEOxAkSZgBU3-99" value="1" style="text;html=1;align=center;verticalAlign=middle;resizable=0;points=[];autosize=1;strokeColor=none;fillColor=none;" vertex="1" parent="1">
          <mxGeometry x="585" y="248" width="30" height="30" as="geometry" />
        </mxCell>
        <mxCell id="5LjnjNYHiEOxAkSZgBU3-100" value="1" style="text;html=1;align=center;verticalAlign=middle;resizable=0;points=[];autosize=1;strokeColor=none;fillColor=none;" vertex="1" parent="1">
          <mxGeometry x="384" y="469" width="30" height="30" as="geometry" />
        </mxCell>
        <mxCell id="5LjnjNYHiEOxAkSZgBU3-101" value="1" style="text;html=1;align=center;verticalAlign=middle;resizable=0;points=[];autosize=1;strokeColor=none;fillColor=none;" vertex="1" parent="1">
          <mxGeometry x="384" y="380" width="30" height="30" as="geometry" />
        </mxCell>
        <mxCell id="5LjnjNYHiEOxAkSZgBU3-102" value="업무인터페이스 구현" style="text;html=1;align=center;verticalAlign=middle;resizable=0;points=[];autosize=1;strokeColor=none;fillColor=none;" vertex="1" parent="1">
          <mxGeometry x="307.25" y="420" width="120" height="30" as="geometry" />
        </mxCell>
        <mxCell id="5LjnjNYHiEOxAkSZgBU3-103" value="1" style="text;html=1;align=center;verticalAlign=middle;resizable=0;points=[];autosize=1;strokeColor=none;fillColor=none;" vertex="1" parent="1">
          <mxGeometry x="479" y="246" width="30" height="30" as="geometry" />
        </mxCell>
        <mxCell id="5LjnjNYHiEOxAkSZgBU3-104" style="rounded=0;orthogonalLoop=1;jettySize=auto;html=1;exitX=0.013;exitY=0.218;exitDx=0;exitDy=0;entryX=1.019;entryY=0.836;entryDx=0;entryDy=0;entryPerimeter=0;exitPerimeter=0;dashed=1;" edge="1" parent="1" source="5LjnjNYHiEOxAkSZgBU3-31" target="5LjnjNYHiEOxAkSZgBU3-56">
          <mxGeometry relative="1" as="geometry">
            <mxPoint x="760" y="276" as="targetPoint" />
          </mxGeometry>
        </mxCell>
        <mxCell id="5LjnjNYHiEOxAkSZgBU3-105" value="1" style="text;html=1;align=center;verticalAlign=middle;resizable=0;points=[];autosize=1;strokeColor=none;fillColor=none;" vertex="1" parent="1">
          <mxGeometry x="492.25" y="351" width="30" height="30" as="geometry" />
        </mxCell>
      </root>
    </mxGraphModel>
  </diagram>
  <diagram id="UxIlpUh-k3e6gqez03XY" name="페이지-3">
    <mxGraphModel dx="1990" dy="1330" grid="1" gridSize="10" guides="1" tooltips="1" connect="1" arrows="1" fold="1" page="1" pageScale="1" pageWidth="827" pageHeight="1169" math="0" shadow="0">
      <root>
        <mxCell id="0" />
        <mxCell id="1" parent="0" />
        <mxCell id="Kwo5XdqHO8HiKTrwuxf9-1" value="비대면업무" style="swimlane;fontStyle=2;align=center;verticalAlign=top;childLayout=stackLayout;horizontal=1;startSize=26;horizontalStack=0;resizeParent=1;resizeLast=0;collapsible=1;marginBottom=0;rounded=0;shadow=0;strokeWidth=1;" vertex="1" parent="1">
          <mxGeometry x="605" y="208" width="160" height="138" as="geometry">
            <mxRectangle x="230" y="140" width="160" height="26" as="alternateBounds" />
          </mxGeometry>
        </mxCell>
        <mxCell id="Kwo5XdqHO8HiKTrwuxf9-2" value="업무코드" style="text;align=left;verticalAlign=top;spacingLeft=4;spacingRight=4;overflow=hidden;rotatable=0;points=[[0,0.5],[1,0.5]];portConstraint=eastwest;" vertex="1" parent="Kwo5XdqHO8HiKTrwuxf9-1">
          <mxGeometry y="26" width="160" height="26" as="geometry" />
        </mxCell>
        <mxCell id="Kwo5XdqHO8HiKTrwuxf9-3" value="업무배정일" style="text;align=left;verticalAlign=top;spacingLeft=4;spacingRight=4;overflow=hidden;rotatable=0;points=[[0,0.5],[1,0.5]];portConstraint=eastwest;rounded=0;shadow=0;html=0;" vertex="1" parent="Kwo5XdqHO8HiKTrwuxf9-1">
          <mxGeometry y="52" width="160" height="26" as="geometry" />
        </mxCell>
        <mxCell id="Kwo5XdqHO8HiKTrwuxf9-4" value="업무상태" style="text;align=left;verticalAlign=top;spacingLeft=4;spacingRight=4;overflow=hidden;rotatable=0;points=[[0,0.5],[1,0.5]];portConstraint=eastwest;rounded=0;shadow=0;html=0;" vertex="1" parent="Kwo5XdqHO8HiKTrwuxf9-1">
          <mxGeometry y="78" width="160" height="26" as="geometry" />
        </mxCell>
        <mxCell id="Kwo5XdqHO8HiKTrwuxf9-5" value="" style="line;html=1;strokeWidth=1;align=left;verticalAlign=middle;spacingTop=-1;spacingLeft=3;spacingRight=3;rotatable=0;labelPosition=right;points=[];portConstraint=eastwest;" vertex="1" parent="Kwo5XdqHO8HiKTrwuxf9-1">
          <mxGeometry y="104" width="160" height="8" as="geometry" />
        </mxCell>
        <mxCell id="Kwo5XdqHO8HiKTrwuxf9-6" value="업무인터페이스 메소드 구현" style="text;align=left;verticalAlign=top;spacingLeft=4;spacingRight=4;overflow=hidden;rotatable=0;points=[[0,0.5],[1,0.5]];portConstraint=eastwest;" vertex="1" parent="Kwo5XdqHO8HiKTrwuxf9-1">
          <mxGeometry y="112" width="160" height="26" as="geometry" />
        </mxCell>
        <mxCell id="Kwo5XdqHO8HiKTrwuxf9-7" value="파일" style="swimlane;fontStyle=0;align=center;verticalAlign=top;childLayout=stackLayout;horizontal=1;startSize=26;horizontalStack=0;resizeParent=1;resizeLast=0;collapsible=1;marginBottom=0;rounded=0;shadow=0;strokeWidth=1;" vertex="1" parent="1">
          <mxGeometry x="24" y="730" width="210" height="121" as="geometry">
            <mxRectangle x="130" y="380" width="160" height="26" as="alternateBounds" />
          </mxGeometry>
        </mxCell>
        <mxCell id="Kwo5XdqHO8HiKTrwuxf9-8" value="파일식별번호" style="text;align=left;verticalAlign=top;spacingLeft=4;spacingRight=4;overflow=hidden;rotatable=0;points=[[0,0.5],[1,0.5]];portConstraint=eastwest;" vertex="1" parent="Kwo5XdqHO8HiKTrwuxf9-7">
          <mxGeometry y="26" width="210" height="26" as="geometry" />
        </mxCell>
        <mxCell id="Kwo5XdqHO8HiKTrwuxf9-9" value="파일등록일자" style="text;align=left;verticalAlign=top;spacingLeft=4;spacingRight=4;overflow=hidden;rotatable=0;points=[[0,0.5],[1,0.5]];portConstraint=eastwest;rounded=0;shadow=0;html=0;" vertex="1" parent="Kwo5XdqHO8HiKTrwuxf9-7">
          <mxGeometry y="52" width="210" height="26" as="geometry" />
        </mxCell>
        <mxCell id="Kwo5XdqHO8HiKTrwuxf9-10" value="" style="line;html=1;strokeWidth=1;align=left;verticalAlign=middle;spacingTop=-1;spacingLeft=3;spacingRight=3;rotatable=0;labelPosition=right;points=[];portConstraint=eastwest;" vertex="1" parent="Kwo5XdqHO8HiKTrwuxf9-7">
          <mxGeometry y="78" width="210" height="8" as="geometry" />
        </mxCell>
        <mxCell id="Kwo5XdqHO8HiKTrwuxf9-11" value="파일업로드인터페이스 메소드 구현" style="text;align=left;verticalAlign=top;spacingLeft=4;spacingRight=4;overflow=hidden;rotatable=0;points=[[0,0.5],[1,0.5]];portConstraint=eastwest;" vertex="1" parent="Kwo5XdqHO8HiKTrwuxf9-7">
          <mxGeometry y="86" width="210" height="26" as="geometry" />
        </mxCell>
        <mxCell id="Kwo5XdqHO8HiKTrwuxf9-12" value="담당자이력" style="swimlane;fontStyle=0;align=center;verticalAlign=top;childLayout=stackLayout;horizontal=1;startSize=26;horizontalStack=0;resizeParent=1;resizeLast=0;collapsible=1;marginBottom=0;rounded=0;shadow=0;strokeWidth=1;" vertex="1" parent="1">
          <mxGeometry x="1498.25" y="811" width="160" height="198" as="geometry">
            <mxRectangle x="340" y="380" width="170" height="26" as="alternateBounds" />
          </mxGeometry>
        </mxCell>
        <mxCell id="Kwo5XdqHO8HiKTrwuxf9-13" value="업무코드" style="text;align=left;verticalAlign=top;spacingLeft=4;spacingRight=4;overflow=hidden;rotatable=0;points=[[0,0.5],[1,0.5]];portConstraint=eastwest;" vertex="1" parent="Kwo5XdqHO8HiKTrwuxf9-12">
          <mxGeometry y="26" width="160" height="26" as="geometry" />
        </mxCell>
        <mxCell id="Kwo5XdqHO8HiKTrwuxf9-14" value="담당자사번" style="text;align=left;verticalAlign=top;spacingLeft=4;spacingRight=4;overflow=hidden;rotatable=0;points=[[0,0.5],[1,0.5]];portConstraint=eastwest;" vertex="1" parent="Kwo5XdqHO8HiKTrwuxf9-12">
          <mxGeometry y="52" width="160" height="26" as="geometry" />
        </mxCell>
        <mxCell id="Kwo5XdqHO8HiKTrwuxf9-15" value="담당자등록일" style="text;align=left;verticalAlign=top;spacingLeft=4;spacingRight=4;overflow=hidden;rotatable=0;points=[[0,0.5],[1,0.5]];portConstraint=eastwest;" vertex="1" parent="Kwo5XdqHO8HiKTrwuxf9-12">
          <mxGeometry y="78" width="160" height="32" as="geometry" />
        </mxCell>
        <mxCell id="Kwo5XdqHO8HiKTrwuxf9-16" value="직급" style="text;align=left;verticalAlign=top;spacingLeft=4;spacingRight=4;overflow=hidden;rotatable=0;points=[[0,0.5],[1,0.5]];portConstraint=eastwest;" vertex="1" parent="Kwo5XdqHO8HiKTrwuxf9-12">
          <mxGeometry y="110" width="160" height="20" as="geometry" />
        </mxCell>
        <mxCell id="Kwo5XdqHO8HiKTrwuxf9-17" value="" style="line;html=1;strokeWidth=1;align=left;verticalAlign=middle;spacingTop=-1;spacingLeft=3;spacingRight=3;rotatable=0;labelPosition=right;points=[];portConstraint=eastwest;" vertex="1" parent="Kwo5XdqHO8HiKTrwuxf9-12">
          <mxGeometry y="130" width="160" height="8" as="geometry" />
        </mxCell>
        <mxCell id="Kwo5XdqHO8HiKTrwuxf9-18" value="&amp;nbsp; 담당자이력조회" style="text;html=1;align=left;verticalAlign=middle;resizable=0;points=[];autosize=1;strokeColor=none;fillColor=none;" vertex="1" parent="Kwo5XdqHO8HiKTrwuxf9-12">
          <mxGeometry y="138" width="160" height="30" as="geometry" />
        </mxCell>
        <mxCell id="Kwo5XdqHO8HiKTrwuxf9-19" value="&amp;nbsp; 담당자이력등록" style="text;html=1;align=left;verticalAlign=middle;resizable=0;points=[];autosize=1;strokeColor=none;fillColor=none;" vertex="1" parent="Kwo5XdqHO8HiKTrwuxf9-12">
          <mxGeometry y="168" width="160" height="30" as="geometry" />
        </mxCell>
        <mxCell id="Kwo5XdqHO8HiKTrwuxf9-20" value="고객" style="swimlane;fontStyle=0;align=center;verticalAlign=top;childLayout=stackLayout;horizontal=1;startSize=26;horizontalStack=0;resizeParent=1;resizeLast=0;collapsible=1;marginBottom=0;rounded=0;shadow=0;strokeWidth=1;" vertex="1" parent="1">
          <mxGeometry x="17.25" y="208" width="220" height="130" as="geometry">
            <mxRectangle x="550" y="140" width="160" height="26" as="alternateBounds" />
          </mxGeometry>
        </mxCell>
        <mxCell id="Kwo5XdqHO8HiKTrwuxf9-21" value="고객식별코드" style="text;align=left;verticalAlign=top;spacingLeft=4;spacingRight=4;overflow=hidden;rotatable=0;points=[[0,0.5],[1,0.5]];portConstraint=eastwest;" vertex="1" parent="Kwo5XdqHO8HiKTrwuxf9-20">
          <mxGeometry y="26" width="220" height="26" as="geometry" />
        </mxCell>
        <mxCell id="Kwo5XdqHO8HiKTrwuxf9-22" value="" style="line;html=1;strokeWidth=1;align=left;verticalAlign=middle;spacingTop=-1;spacingLeft=3;spacingRight=3;rotatable=0;labelPosition=right;points=[];portConstraint=eastwest;" vertex="1" parent="Kwo5XdqHO8HiKTrwuxf9-20">
          <mxGeometry y="52" width="220" height="8" as="geometry" />
        </mxCell>
        <mxCell id="Kwo5XdqHO8HiKTrwuxf9-23" value="업무접수" style="text;align=left;verticalAlign=top;spacingLeft=4;spacingRight=4;overflow=hidden;rotatable=0;points=[[0,0.5],[1,0.5]];portConstraint=eastwest;" vertex="1" parent="Kwo5XdqHO8HiKTrwuxf9-20">
          <mxGeometry y="60" width="220" height="26" as="geometry" />
        </mxCell>
        <mxCell id="Kwo5XdqHO8HiKTrwuxf9-24" value="파일업로드" style="text;align=left;verticalAlign=top;spacingLeft=4;spacingRight=4;overflow=hidden;rotatable=0;points=[[0,0.5],[1,0.5]];portConstraint=eastwest;" vertex="1" parent="Kwo5XdqHO8HiKTrwuxf9-20">
          <mxGeometry y="86" width="220" height="26" as="geometry" />
        </mxCell>
        <mxCell id="Kwo5XdqHO8HiKTrwuxf9-25" value="담당자" style="swimlane;fontStyle=0;align=center;verticalAlign=top;childLayout=stackLayout;horizontal=1;startSize=26;horizontalStack=0;resizeParent=1;resizeLast=0;collapsible=1;marginBottom=0;rounded=0;shadow=0;strokeWidth=1;" vertex="1" parent="1">
          <mxGeometry x="1178.25" y="500" width="130" height="242" as="geometry">
            <mxRectangle x="130" y="380" width="160" height="26" as="alternateBounds" />
          </mxGeometry>
        </mxCell>
        <mxCell id="Kwo5XdqHO8HiKTrwuxf9-26" value="담당자사번" style="text;align=left;verticalAlign=top;spacingLeft=4;spacingRight=4;overflow=hidden;rotatable=0;points=[[0,0.5],[1,0.5]];portConstraint=eastwest;" vertex="1" parent="Kwo5XdqHO8HiKTrwuxf9-25">
          <mxGeometry y="26" width="130" height="26" as="geometry" />
        </mxCell>
        <mxCell id="Kwo5XdqHO8HiKTrwuxf9-27" value="담당자등록일자" style="text;align=left;verticalAlign=top;spacingLeft=4;spacingRight=4;overflow=hidden;rotatable=0;points=[[0,0.5],[1,0.5]];portConstraint=eastwest;rounded=0;shadow=0;html=0;" vertex="1" parent="Kwo5XdqHO8HiKTrwuxf9-25">
          <mxGeometry y="52" width="130" height="26" as="geometry" />
        </mxCell>
        <mxCell id="Kwo5XdqHO8HiKTrwuxf9-28" value="직급" style="text;align=left;verticalAlign=top;spacingLeft=4;spacingRight=4;overflow=hidden;rotatable=0;points=[[0,0.5],[1,0.5]];portConstraint=eastwest;rounded=0;shadow=0;html=0;" vertex="1" parent="Kwo5XdqHO8HiKTrwuxf9-25">
          <mxGeometry y="78" width="130" height="26" as="geometry" />
        </mxCell>
        <mxCell id="Kwo5XdqHO8HiKTrwuxf9-29" value="" style="line;html=1;strokeWidth=1;align=left;verticalAlign=middle;spacingTop=-1;spacingLeft=3;spacingRight=3;rotatable=0;labelPosition=right;points=[];portConstraint=eastwest;" vertex="1" parent="Kwo5XdqHO8HiKTrwuxf9-25">
          <mxGeometry y="104" width="130" height="8" as="geometry" />
        </mxCell>
        <mxCell id="Kwo5XdqHO8HiKTrwuxf9-30" value="업무접수" style="text;align=left;verticalAlign=top;spacingLeft=4;spacingRight=4;overflow=hidden;rotatable=0;points=[[0,0.5],[1,0.5]];portConstraint=eastwest;fontStyle=0" vertex="1" parent="Kwo5XdqHO8HiKTrwuxf9-25">
          <mxGeometry y="112" width="130" height="26" as="geometry" />
        </mxCell>
        <mxCell id="Kwo5XdqHO8HiKTrwuxf9-120" value="파일업로드" style="text;align=left;verticalAlign=top;spacingLeft=4;spacingRight=4;overflow=hidden;rotatable=0;points=[[0,0.5],[1,0.5]];portConstraint=eastwest;fontStyle=0" vertex="1" parent="Kwo5XdqHO8HiKTrwuxf9-25">
          <mxGeometry y="138" width="130" height="26" as="geometry" />
        </mxCell>
        <mxCell id="Kwo5XdqHO8HiKTrwuxf9-119" value="담당자확인" style="text;align=left;verticalAlign=top;spacingLeft=4;spacingRight=4;overflow=hidden;rotatable=0;points=[[0,0.5],[1,0.5]];portConstraint=eastwest;fontStyle=0" vertex="1" parent="Kwo5XdqHO8HiKTrwuxf9-25">
          <mxGeometry y="164" width="130" height="26" as="geometry" />
        </mxCell>
        <mxCell id="Kwo5XdqHO8HiKTrwuxf9-31" value="담당자배정" style="text;align=left;verticalAlign=top;spacingLeft=4;spacingRight=4;overflow=hidden;rotatable=0;points=[[0,0.5],[1,0.5]];portConstraint=eastwest;fontStyle=0" vertex="1" parent="Kwo5XdqHO8HiKTrwuxf9-25">
          <mxGeometry y="190" width="130" height="26" as="geometry" />
        </mxCell>
        <mxCell id="Kwo5XdqHO8HiKTrwuxf9-32" value="담당자이력등록" style="text;align=left;verticalAlign=top;spacingLeft=4;spacingRight=4;overflow=hidden;rotatable=0;points=[[0,0.5],[1,0.5]];portConstraint=eastwest;fontStyle=0" vertex="1" parent="Kwo5XdqHO8HiKTrwuxf9-25">
          <mxGeometry y="216" width="130" height="26" as="geometry" />
        </mxCell>
        <mxCell id="Kwo5XdqHO8HiKTrwuxf9-33" value="대무자" style="swimlane;fontStyle=0;align=center;verticalAlign=top;childLayout=stackLayout;horizontal=1;startSize=26;horizontalStack=0;resizeParent=1;resizeLast=0;collapsible=1;marginBottom=0;rounded=0;shadow=0;strokeWidth=1;" vertex="1" parent="1">
          <mxGeometry x="1040" y="812" width="157.5" height="216" as="geometry">
            <mxRectangle x="130" y="380" width="160" height="26" as="alternateBounds" />
          </mxGeometry>
        </mxCell>
        <mxCell id="Kwo5XdqHO8HiKTrwuxf9-34" value="대무자사번" style="text;align=left;verticalAlign=top;spacingLeft=4;spacingRight=4;overflow=hidden;rotatable=0;points=[[0,0.5],[1,0.5]];portConstraint=eastwest;" vertex="1" parent="Kwo5XdqHO8HiKTrwuxf9-33">
          <mxGeometry y="26" width="157.5" height="26" as="geometry" />
        </mxCell>
        <mxCell id="Kwo5XdqHO8HiKTrwuxf9-35" value="대무자등록일자" style="text;align=left;verticalAlign=top;spacingLeft=4;spacingRight=4;overflow=hidden;rotatable=0;points=[[0,0.5],[1,0.5]];portConstraint=eastwest;rounded=0;shadow=0;html=0;" vertex="1" parent="Kwo5XdqHO8HiKTrwuxf9-33">
          <mxGeometry y="52" width="157.5" height="26" as="geometry" />
        </mxCell>
        <mxCell id="Kwo5XdqHO8HiKTrwuxf9-36" value="직급" style="text;align=left;verticalAlign=top;spacingLeft=4;spacingRight=4;overflow=hidden;rotatable=0;points=[[0,0.5],[1,0.5]];portConstraint=eastwest;rounded=0;shadow=0;html=0;" vertex="1" parent="Kwo5XdqHO8HiKTrwuxf9-33">
          <mxGeometry y="78" width="157.5" height="26" as="geometry" />
        </mxCell>
        <mxCell id="Kwo5XdqHO8HiKTrwuxf9-37" value="" style="line;html=1;strokeWidth=1;align=left;verticalAlign=middle;spacingTop=-1;spacingLeft=3;spacingRight=3;rotatable=0;labelPosition=right;points=[];portConstraint=eastwest;" vertex="1" parent="Kwo5XdqHO8HiKTrwuxf9-33">
          <mxGeometry y="104" width="157.5" height="8" as="geometry" />
        </mxCell>
        <mxCell id="Kwo5XdqHO8HiKTrwuxf9-38" value="대무자등록" style="text;align=left;verticalAlign=top;spacingLeft=4;spacingRight=4;overflow=hidden;rotatable=0;points=[[0,0.5],[1,0.5]];portConstraint=eastwest;fontStyle=0" vertex="1" parent="Kwo5XdqHO8HiKTrwuxf9-33">
          <mxGeometry y="112" width="157.5" height="26" as="geometry" />
        </mxCell>
        <mxCell id="Kwo5XdqHO8HiKTrwuxf9-39" value="대무자조회" style="text;align=left;verticalAlign=top;spacingLeft=4;spacingRight=4;overflow=hidden;rotatable=0;points=[[0,0.5],[1,0.5]];portConstraint=eastwest;" vertex="1" parent="Kwo5XdqHO8HiKTrwuxf9-33">
          <mxGeometry y="138" width="157.5" height="26" as="geometry" />
        </mxCell>
        <mxCell id="Kwo5XdqHO8HiKTrwuxf9-40" value="대무자변경" style="text;align=left;verticalAlign=top;spacingLeft=4;spacingRight=4;overflow=hidden;rotatable=0;points=[[0,0.5],[1,0.5]];portConstraint=eastwest;" vertex="1" parent="Kwo5XdqHO8HiKTrwuxf9-33">
          <mxGeometry y="164" width="157.5" height="26" as="geometry" />
        </mxCell>
        <mxCell id="Kwo5XdqHO8HiKTrwuxf9-41" value="대무자삭제" style="text;align=left;verticalAlign=top;spacingLeft=4;spacingRight=4;overflow=hidden;rotatable=0;points=[[0,0.5],[1,0.5]];portConstraint=eastwest;" vertex="1" parent="Kwo5XdqHO8HiKTrwuxf9-33">
          <mxGeometry y="190" width="157.5" height="26" as="geometry" />
        </mxCell>
        <mxCell id="Kwo5XdqHO8HiKTrwuxf9-43" value="담당자업무" style="swimlane;fontStyle=0;align=center;verticalAlign=top;childLayout=stackLayout;horizontal=1;startSize=26;horizontalStack=0;resizeParent=1;resizeLast=0;collapsible=1;marginBottom=0;rounded=0;shadow=0;strokeWidth=1;" vertex="1" parent="1">
          <mxGeometry x="560" y="511" width="226" height="190" as="geometry">
            <mxRectangle x="130" y="380" width="160" height="26" as="alternateBounds" />
          </mxGeometry>
        </mxCell>
        <mxCell id="Kwo5XdqHO8HiKTrwuxf9-44" value="담당자사번" style="text;align=left;verticalAlign=top;spacingLeft=4;spacingRight=4;overflow=hidden;rotatable=0;points=[[0,0.5],[1,0.5]];portConstraint=eastwest;" vertex="1" parent="Kwo5XdqHO8HiKTrwuxf9-43">
          <mxGeometry y="26" width="226" height="26" as="geometry" />
        </mxCell>
        <mxCell id="Kwo5XdqHO8HiKTrwuxf9-45" value="업무코드" style="text;align=left;verticalAlign=top;spacingLeft=4;spacingRight=4;overflow=hidden;rotatable=0;points=[[0,0.5],[1,0.5]];portConstraint=eastwest;rounded=0;shadow=0;html=0;" vertex="1" parent="Kwo5XdqHO8HiKTrwuxf9-43">
          <mxGeometry y="52" width="226" height="26" as="geometry" />
        </mxCell>
        <mxCell id="Kwo5XdqHO8HiKTrwuxf9-46" value="업무단계" style="text;align=left;verticalAlign=top;spacingLeft=4;spacingRight=4;overflow=hidden;rotatable=0;points=[[0,0.5],[1,0.5]];portConstraint=eastwest;rounded=0;shadow=0;html=0;" vertex="1" parent="Kwo5XdqHO8HiKTrwuxf9-43">
          <mxGeometry y="78" width="226" height="26" as="geometry" />
        </mxCell>
        <mxCell id="Kwo5XdqHO8HiKTrwuxf9-47" value="" style="line;html=1;strokeWidth=1;align=left;verticalAlign=middle;spacingTop=-1;spacingLeft=3;spacingRight=3;rotatable=0;labelPosition=right;points=[];portConstraint=eastwest;" vertex="1" parent="Kwo5XdqHO8HiKTrwuxf9-43">
          <mxGeometry y="104" width="226" height="8" as="geometry" />
        </mxCell>
        <mxCell id="Kwo5XdqHO8HiKTrwuxf9-48" value="업무단계조회" style="text;align=left;verticalAlign=top;spacingLeft=4;spacingRight=4;overflow=hidden;rotatable=0;points=[[0,0.5],[1,0.5]];portConstraint=eastwest;fontStyle=0" vertex="1" parent="Kwo5XdqHO8HiKTrwuxf9-43">
          <mxGeometry y="112" width="226" height="26" as="geometry" />
        </mxCell>
        <mxCell id="Kwo5XdqHO8HiKTrwuxf9-49" value="파일업로드" style="text;align=left;verticalAlign=top;spacingLeft=4;spacingRight=4;overflow=hidden;rotatable=0;points=[[0,0.5],[1,0.5]];portConstraint=eastwest;fontStyle=0" vertex="1" parent="Kwo5XdqHO8HiKTrwuxf9-43">
          <mxGeometry y="138" width="226" height="26" as="geometry" />
        </mxCell>
        <mxCell id="Kwo5XdqHO8HiKTrwuxf9-50" value="업무인터페이스 메소드 구현" style="text;align=left;verticalAlign=top;spacingLeft=4;spacingRight=4;overflow=hidden;rotatable=0;points=[[0,0.5],[1,0.5]];portConstraint=eastwest;fontStyle=0" vertex="1" parent="Kwo5XdqHO8HiKTrwuxf9-43">
          <mxGeometry y="164" width="226" height="26" as="geometry" />
        </mxCell>
        <mxCell id="Kwo5XdqHO8HiKTrwuxf9-51" style="rounded=0;orthogonalLoop=1;jettySize=auto;html=1;entryX=0.5;entryY=0;entryDx=0;entryDy=0;dashed=1;exitX=0.5;exitY=1;exitDx=0;exitDy=0;" edge="1" parent="1" source="Kwo5XdqHO8HiKTrwuxf9-25" target="Kwo5XdqHO8HiKTrwuxf9-12">
          <mxGeometry relative="1" as="geometry">
            <mxPoint x="1093.31" y="397.98800000000006" as="sourcePoint" />
          </mxGeometry>
        </mxCell>
        <mxCell id="Kwo5XdqHO8HiKTrwuxf9-52" style="rounded=0;orthogonalLoop=1;jettySize=auto;html=1;entryX=0.5;entryY=0;entryDx=0;entryDy=0;dashed=1;exitX=0.506;exitY=0.962;exitDx=0;exitDy=0;exitPerimeter=0;" edge="1" parent="1" source="Kwo5XdqHO8HiKTrwuxf9-32" target="Kwo5XdqHO8HiKTrwuxf9-33">
          <mxGeometry relative="1" as="geometry">
            <mxPoint x="1171.75" y="390" as="sourcePoint" />
          </mxGeometry>
        </mxCell>
        <mxCell id="Kwo5XdqHO8HiKTrwuxf9-53" value="&lt;b style=&quot;border-color: var(--border-color);&quot;&gt;업무접수 메소드&lt;/b&gt;는 담당자가 호출한&lt;br style=&quot;border-color: var(--border-color);&quot;&gt;업무인터페이스를 통해 각 담당자업무메소드를 호출한다.&lt;br style=&quot;border-color: var(--border-color);&quot;&gt;&lt;b style=&quot;border-color: var(--border-color);&quot;&gt;파일업로드 메소드&lt;/b&gt;는 파일업로드 인터페이스를 통해&lt;br style=&quot;border-color: var(--border-color);&quot;&gt;파일을 등록,조회,변경,삭제한다.&lt;b&gt;&lt;br&gt;담당자확인메소드&lt;/b&gt;를 통해 담당자 적합성을 판단한다.&lt;br&gt;1. 직급확인(대리이상)&lt;br&gt;2. 대무자 및 이관자 존재유무 확인&lt;br&gt;3. 이관자 존재 시 이관자이력을 통해 최근 이관자 확인&lt;br&gt;이때 이관자이력과 대무자가 확인되면 &lt;br&gt;클래스관계가 마무리된다.(Dependency)&lt;br&gt;&lt;b&gt;담당자 배정메소드&lt;/b&gt;를 통해 담당자를 결정한다.&lt;br&gt;그리디 알고리즘을 통해 &lt;br&gt;배정받은 업무수가 적은 담당자를 우선으로 배정한다.&lt;br&gt;&lt;b style=&quot;border-color: var(--border-color);&quot;&gt;담당자이력등록메소드&lt;/b&gt;는 담당자클래스에서&lt;br style=&quot;border-color: var(--border-color);&quot;&gt;담당자가 배정되면 담당자이력테이블에 저장한다.&amp;nbsp;" style="text;html=1;align=left;verticalAlign=middle;resizable=0;points=[];autosize=1;strokeColor=#d6b656;fillColor=#fff2cc;" vertex="1" parent="1">
          <mxGeometry x="1330" y="500" width="290" height="230" as="geometry" />
        </mxCell>
        <mxCell id="Kwo5XdqHO8HiKTrwuxf9-54" value="&lt;&lt;interface&gt;&gt;&#xa;업무" style="swimlane;fontStyle=2;align=center;verticalAlign=top;childLayout=stackLayout;horizontal=1;startSize=40;horizontalStack=0;resizeParent=1;resizeLast=0;collapsible=1;marginBottom=0;rounded=0;shadow=0;strokeWidth=1;" vertex="1" parent="1">
          <mxGeometry x="344.25" y="213" width="145" height="160" as="geometry">
            <mxRectangle x="230" y="140" width="160" height="26" as="alternateBounds" />
          </mxGeometry>
        </mxCell>
        <mxCell id="Kwo5XdqHO8HiKTrwuxf9-55" value="" style="line;html=1;strokeWidth=1;align=left;verticalAlign=middle;spacingTop=-1;spacingLeft=3;spacingRight=3;rotatable=0;labelPosition=right;points=[];portConstraint=eastwest;" vertex="1" parent="Kwo5XdqHO8HiKTrwuxf9-54">
          <mxGeometry y="40" width="145" height="8" as="geometry" />
        </mxCell>
        <mxCell id="Kwo5XdqHO8HiKTrwuxf9-56" value="업무등록&#xa;&#xa;업무조회&#xa;&#xa;업무변경&#xa;&#xa;업무삭제" style="text;align=left;verticalAlign=top;spacingLeft=4;spacingRight=4;overflow=hidden;rotatable=0;points=[[0,0.5],[1,0.5]];portConstraint=eastwest;" vertex="1" parent="Kwo5XdqHO8HiKTrwuxf9-54">
          <mxGeometry y="48" width="145" height="112" as="geometry" />
        </mxCell>
        <mxCell id="Kwo5XdqHO8HiKTrwuxf9-57" style="rounded=0;orthogonalLoop=1;jettySize=auto;html=1;exitX=1;exitY=0.5;exitDx=0;exitDy=0;entryX=-0.006;entryY=0.167;entryDx=0;entryDy=0;dashed=1;entryPerimeter=0;" edge="1" parent="1" source="Kwo5XdqHO8HiKTrwuxf9-23" target="Kwo5XdqHO8HiKTrwuxf9-56">
          <mxGeometry relative="1" as="geometry" />
        </mxCell>
        <mxCell id="Kwo5XdqHO8HiKTrwuxf9-58" value="업무 호출" style="text;html=1;align=center;verticalAlign=middle;resizable=0;points=[];autosize=1;strokeColor=none;fillColor=none;" vertex="1" parent="1">
          <mxGeometry x="247.25" y="254" width="70" height="30" as="geometry" />
        </mxCell>
        <mxCell id="Kwo5XdqHO8HiKTrwuxf9-59" value="고객클래스는 비대면업무 인터페이스를 사용하고&lt;br&gt;업무 클래스는 비대면업무를 구현함으로써&lt;br&gt;런타임 시점에 의존관계가 주입된다.&lt;br&gt;&lt;b&gt;업무접수 메소드&lt;/b&gt;는 고객이 호출한 &lt;br&gt;업무인터페이스를 통해 각 비대면업무메소드를 호출한다.&lt;br&gt;&lt;b&gt;파일업로드 메소드&lt;/b&gt;는 파일업로드 인터페이스를 통해&lt;br&gt;파일을 등록,조회,변경,삭제한다." style="text;html=1;align=left;verticalAlign=middle;resizable=0;points=[];autosize=1;strokeColor=#d6b656;fillColor=#fff2cc;" vertex="1" parent="1">
          <mxGeometry x="17.25" y="92" width="290" height="110" as="geometry" />
        </mxCell>
        <mxCell id="Kwo5XdqHO8HiKTrwuxf9-60" value="1" style="text;html=1;align=center;verticalAlign=middle;resizable=0;points=[];autosize=1;strokeColor=none;fillColor=none;" vertex="1" parent="1">
          <mxGeometry x="227.25" y="278" width="30" height="30" as="geometry" />
        </mxCell>
        <mxCell id="Kwo5XdqHO8HiKTrwuxf9-61" value="*" style="text;html=1;align=center;verticalAlign=middle;resizable=0;points=[];autosize=1;strokeColor=none;fillColor=none;" vertex="1" parent="1">
          <mxGeometry x="317.25" y="282" width="30" height="30" as="geometry" />
        </mxCell>
        <mxCell id="Kwo5XdqHO8HiKTrwuxf9-62" value="*" style="text;html=1;align=center;verticalAlign=middle;resizable=0;points=[];autosize=1;strokeColor=none;fillColor=none;" vertex="1" parent="1">
          <mxGeometry x="204" y="570" width="30" height="30" as="geometry" />
        </mxCell>
        <mxCell id="Kwo5XdqHO8HiKTrwuxf9-63" value="&lt;&lt;interface&gt;&gt;&#xa;파일업로드" style="swimlane;fontStyle=2;align=center;verticalAlign=top;childLayout=stackLayout;horizontal=1;startSize=40;horizontalStack=0;resizeParent=1;resizeLast=0;collapsible=1;marginBottom=0;rounded=0;shadow=0;strokeWidth=1;" vertex="1" parent="1">
          <mxGeometry x="52.75" y="511" width="152.5" height="152" as="geometry">
            <mxRectangle x="230" y="140" width="160" height="26" as="alternateBounds" />
          </mxGeometry>
        </mxCell>
        <mxCell id="Kwo5XdqHO8HiKTrwuxf9-64" value="" style="line;html=1;strokeWidth=1;align=left;verticalAlign=middle;spacingTop=-1;spacingLeft=3;spacingRight=3;rotatable=0;labelPosition=right;points=[];portConstraint=eastwest;" vertex="1" parent="Kwo5XdqHO8HiKTrwuxf9-63">
          <mxGeometry y="40" width="152.5" height="8" as="geometry" />
        </mxCell>
        <mxCell id="Kwo5XdqHO8HiKTrwuxf9-65" value="파일등록" style="text;align=left;verticalAlign=top;spacingLeft=4;spacingRight=4;overflow=hidden;rotatable=0;points=[[0,0.5],[1,0.5]];portConstraint=eastwest;fontStyle=0" vertex="1" parent="Kwo5XdqHO8HiKTrwuxf9-63">
          <mxGeometry y="48" width="152.5" height="26" as="geometry" />
        </mxCell>
        <mxCell id="Kwo5XdqHO8HiKTrwuxf9-66" value="파일조회" style="text;align=left;verticalAlign=top;spacingLeft=4;spacingRight=4;overflow=hidden;rotatable=0;points=[[0,0.5],[1,0.5]];portConstraint=eastwest;" vertex="1" parent="Kwo5XdqHO8HiKTrwuxf9-63">
          <mxGeometry y="74" width="152.5" height="26" as="geometry" />
        </mxCell>
        <mxCell id="Kwo5XdqHO8HiKTrwuxf9-67" value="파일변경" style="text;align=left;verticalAlign=top;spacingLeft=4;spacingRight=4;overflow=hidden;rotatable=0;points=[[0,0.5],[1,0.5]];portConstraint=eastwest;" vertex="1" parent="Kwo5XdqHO8HiKTrwuxf9-63">
          <mxGeometry y="100" width="152.5" height="26" as="geometry" />
        </mxCell>
        <mxCell id="Kwo5XdqHO8HiKTrwuxf9-68" value="파일삭제" style="text;align=left;verticalAlign=top;spacingLeft=4;spacingRight=4;overflow=hidden;rotatable=0;points=[[0,0.5],[1,0.5]];portConstraint=eastwest;" vertex="1" parent="Kwo5XdqHO8HiKTrwuxf9-63">
          <mxGeometry y="126" width="152.5" height="26" as="geometry" />
        </mxCell>
        <mxCell id="Kwo5XdqHO8HiKTrwuxf9-69" style="rounded=0;orthogonalLoop=1;jettySize=auto;html=1;exitX=0.5;exitY=1;exitDx=0;exitDy=0;entryX=0.5;entryY=0;entryDx=0;entryDy=0;dashed=1;" edge="1" parent="1" source="Kwo5XdqHO8HiKTrwuxf9-20" target="Kwo5XdqHO8HiKTrwuxf9-63">
          <mxGeometry relative="1" as="geometry">
            <mxPoint x="85" y="410" as="sourcePoint" />
            <mxPoint x="180" y="410" as="targetPoint" />
          </mxGeometry>
        </mxCell>
        <mxCell id="Kwo5XdqHO8HiKTrwuxf9-70" value="1" style="text;html=1;align=center;verticalAlign=middle;resizable=0;points=[];autosize=1;strokeColor=none;fillColor=none;" vertex="1" parent="1">
          <mxGeometry x="103.25" y="332" width="30" height="30" as="geometry" />
        </mxCell>
        <mxCell id="Kwo5XdqHO8HiKTrwuxf9-71" value="*" style="text;html=1;align=center;verticalAlign=middle;resizable=0;points=[];autosize=1;strokeColor=none;fillColor=none;" vertex="1" parent="1">
          <mxGeometry x="106" y="480" width="30" height="30" as="geometry" />
        </mxCell>
        <mxCell id="Kwo5XdqHO8HiKTrwuxf9-72" style="rounded=0;orthogonalLoop=1;jettySize=auto;html=1;endArrow=block;endFill=0;dashed=1;exitX=0.5;exitY=0;exitDx=0;exitDy=0;entryX=0.5;entryY=1;entryDx=0;entryDy=0;" edge="1" parent="1" source="Kwo5XdqHO8HiKTrwuxf9-7" target="Kwo5XdqHO8HiKTrwuxf9-63">
          <mxGeometry relative="1" as="geometry">
            <mxPoint x="123.99999999999991" y="684.0039999999999" as="sourcePoint" />
            <mxPoint x="125" y="622" as="targetPoint" />
          </mxGeometry>
        </mxCell>
        <mxCell id="Kwo5XdqHO8HiKTrwuxf9-73" value="1" style="text;html=1;align=center;verticalAlign=middle;resizable=0;points=[];autosize=1;strokeColor=none;fillColor=none;" vertex="1" parent="1">
          <mxGeometry x="105" y="661" width="30" height="30" as="geometry" />
        </mxCell>
        <mxCell id="Kwo5XdqHO8HiKTrwuxf9-74" value="1" style="text;html=1;align=center;verticalAlign=middle;resizable=0;points=[];autosize=1;strokeColor=none;fillColor=none;" vertex="1" parent="1">
          <mxGeometry x="105" y="705" width="30" height="30" as="geometry" />
        </mxCell>
        <mxCell id="Kwo5XdqHO8HiKTrwuxf9-75" value="고객과 담당자 별로&lt;br&gt;파일업로드 인터페이스를 두고&lt;br&gt;파일 클래스에서 &lt;br&gt;파일등록 및 관리 프로세스를 구현한다.&lt;br&gt;&lt;b&gt;파일업로드인터페이스 메소드&lt;/b&gt;에서 &lt;br&gt;파일에대한 CURD를 실행한다." style="text;html=1;align=left;verticalAlign=middle;resizable=0;points=[];autosize=1;strokeColor=#d6b656;fillColor=#fff2cc;" vertex="1" parent="1">
          <mxGeometry x="24" y="856" width="210" height="100" as="geometry" />
        </mxCell>
        <mxCell id="Kwo5XdqHO8HiKTrwuxf9-76" value="담당자이관이력" style="swimlane;fontStyle=0;align=center;verticalAlign=top;childLayout=stackLayout;horizontal=1;startSize=26;horizontalStack=0;resizeParent=1;resizeLast=0;collapsible=1;marginBottom=0;rounded=0;shadow=0;strokeWidth=1;" vertex="1" parent="1">
          <mxGeometry x="1248.25" y="811" width="157.5" height="220" as="geometry">
            <mxRectangle x="130" y="380" width="160" height="26" as="alternateBounds" />
          </mxGeometry>
        </mxCell>
        <mxCell id="Kwo5XdqHO8HiKTrwuxf9-77" value="이관자사번" style="text;align=left;verticalAlign=top;spacingLeft=4;spacingRight=4;overflow=hidden;rotatable=0;points=[[0,0.5],[1,0.5]];portConstraint=eastwest;" vertex="1" parent="Kwo5XdqHO8HiKTrwuxf9-76">
          <mxGeometry y="26" width="157.5" height="26" as="geometry" />
        </mxCell>
        <mxCell id="Kwo5XdqHO8HiKTrwuxf9-78" value="최초 이관자사번" style="text;align=left;verticalAlign=top;spacingLeft=4;spacingRight=4;overflow=hidden;rotatable=0;points=[[0,0.5],[1,0.5]];portConstraint=eastwest;" vertex="1" parent="Kwo5XdqHO8HiKTrwuxf9-76">
          <mxGeometry y="52" width="157.5" height="26" as="geometry" />
        </mxCell>
        <mxCell id="Kwo5XdqHO8HiKTrwuxf9-79" value="최근 이관자사번" style="text;align=left;verticalAlign=top;spacingLeft=4;spacingRight=4;overflow=hidden;rotatable=0;points=[[0,0.5],[1,0.5]];portConstraint=eastwest;" vertex="1" parent="Kwo5XdqHO8HiKTrwuxf9-76">
          <mxGeometry y="78" width="157.5" height="26" as="geometry" />
        </mxCell>
        <mxCell id="Kwo5XdqHO8HiKTrwuxf9-80" value="이관자등록일자" style="text;align=left;verticalAlign=top;spacingLeft=4;spacingRight=4;overflow=hidden;rotatable=0;points=[[0,0.5],[1,0.5]];portConstraint=eastwest;rounded=0;shadow=0;html=0;" vertex="1" parent="Kwo5XdqHO8HiKTrwuxf9-76">
          <mxGeometry y="104" width="157.5" height="26" as="geometry" />
        </mxCell>
        <mxCell id="Kwo5XdqHO8HiKTrwuxf9-81" value="직급" style="text;align=left;verticalAlign=top;spacingLeft=4;spacingRight=4;overflow=hidden;rotatable=0;points=[[0,0.5],[1,0.5]];portConstraint=eastwest;rounded=0;shadow=0;html=0;" vertex="1" parent="Kwo5XdqHO8HiKTrwuxf9-76">
          <mxGeometry y="130" width="157.5" height="26" as="geometry" />
        </mxCell>
        <mxCell id="Kwo5XdqHO8HiKTrwuxf9-82" value="" style="line;html=1;strokeWidth=1;align=left;verticalAlign=middle;spacingTop=-1;spacingLeft=3;spacingRight=3;rotatable=0;labelPosition=right;points=[];portConstraint=eastwest;" vertex="1" parent="Kwo5XdqHO8HiKTrwuxf9-76">
          <mxGeometry y="156" width="157.5" height="8" as="geometry" />
        </mxCell>
        <mxCell id="Kwo5XdqHO8HiKTrwuxf9-83" value="이관자등록" style="text;align=left;verticalAlign=top;spacingLeft=4;spacingRight=4;overflow=hidden;rotatable=0;points=[[0,0.5],[1,0.5]];portConstraint=eastwest;fontStyle=0" vertex="1" parent="Kwo5XdqHO8HiKTrwuxf9-76">
          <mxGeometry y="164" width="157.5" height="26" as="geometry" />
        </mxCell>
        <mxCell id="Kwo5XdqHO8HiKTrwuxf9-84" value="이관자조회" style="text;align=left;verticalAlign=top;spacingLeft=4;spacingRight=4;overflow=hidden;rotatable=0;points=[[0,0.5],[1,0.5]];portConstraint=eastwest;" vertex="1" parent="Kwo5XdqHO8HiKTrwuxf9-76">
          <mxGeometry y="190" width="157.5" height="26" as="geometry" />
        </mxCell>
        <mxCell id="Kwo5XdqHO8HiKTrwuxf9-85" style="rounded=0;orthogonalLoop=1;jettySize=auto;html=1;entryX=0.5;entryY=0;entryDx=0;entryDy=0;dashed=1;exitX=0.563;exitY=1.097;exitDx=0;exitDy=0;exitPerimeter=0;" edge="1" parent="1" source="Kwo5XdqHO8HiKTrwuxf9-32" target="Kwo5XdqHO8HiKTrwuxf9-76">
          <mxGeometry relative="1" as="geometry">
            <mxPoint x="1210" y="409" as="sourcePoint" />
            <mxPoint x="1074" y="479" as="targetPoint" />
          </mxGeometry>
        </mxCell>
        <mxCell id="Kwo5XdqHO8HiKTrwuxf9-86" value="각 메서드에서 대무자에대한 &lt;br&gt;CRUD를 진행한다." style="text;html=1;align=left;verticalAlign=middle;resizable=0;points=[];autosize=1;strokeColor=#d6b656;fillColor=#fff2cc;" vertex="1" parent="1">
          <mxGeometry x="1040" y="1038" width="150" height="40" as="geometry" />
        </mxCell>
        <mxCell id="Kwo5XdqHO8HiKTrwuxf9-87" value="&lt;b&gt;담당자이력조회메소드&lt;/b&gt;는 담당자사번을 key값으로&lt;br&gt;그동안 등록된 담당자이력을 list형식으로 조회한다.&lt;b&gt;&lt;br&gt;담당자이력등록메소드&lt;/b&gt;는 &lt;br&gt;담당자를&amp;nbsp;담당자이력테이블에 저장한다.&amp;nbsp;" style="text;html=1;align=left;verticalAlign=middle;resizable=0;points=[];autosize=1;strokeColor=#d6b656;fillColor=#fff2cc;" vertex="1" parent="1">
          <mxGeometry x="1498.25" y="1019" width="260" height="70" as="geometry" />
        </mxCell>
        <mxCell id="Kwo5XdqHO8HiKTrwuxf9-88" value="&lt;b&gt;이관자조회메소드&lt;/b&gt;&lt;br&gt;담당자사번을 Key로 &lt;br&gt;담당자이관이력을 조회한다.&lt;br&gt;&lt;b&gt;이관자등록메소드&lt;/b&gt;는&lt;br&gt;1.담당자이관이력테이블을 조회한다.&lt;br&gt;2. 최초이관자사번이 조회되면&amp;nbsp;&lt;br&gt;동일한 사번을 최초이관자서번에 등록하고&lt;br&gt;최근이관자사번에는 현재이관자로 등록한다." style="text;html=1;align=left;verticalAlign=middle;resizable=0;points=[];autosize=1;strokeColor=#d6b656;fillColor=#fff2cc;" vertex="1" parent="1">
          <mxGeometry x="1248.25" y="1039" width="230" height="130" as="geometry" />
        </mxCell>
        <mxCell id="Kwo5XdqHO8HiKTrwuxf9-89" value="&lt;b&gt;-업무인터페이스 메소드&lt;br&gt;업무조회메소드는&lt;br&gt;&lt;/b&gt;배정,접수,검토중,처리완료,처리불가 등 &lt;br&gt;업무상태를 조회한다.&lt;br&gt;&lt;b&gt;업무등록메소드&lt;/b&gt;는&amp;nbsp;&lt;br&gt;담당자 사번과 업무코드를 key로 &lt;br&gt;배정,접수,검토중,처리완료,처리불가 단계를&lt;br&gt;등록한다.&lt;br&gt;이때 처리완료 시 &lt;br&gt;업무클래스의 업무등록메소드를 호출하여&amp;nbsp;&lt;br&gt;업무상태를 완료로 변경한다.&lt;br&gt;&lt;b&gt;파일 업로드 메소드&lt;/b&gt;는 담당자 업무실행 시&lt;br&gt;필요한 파일 등록,조회,변경,삭제를 &lt;br&gt;인터페이스를호출하여 실행한다." style="text;html=1;align=left;verticalAlign=middle;resizable=0;points=[];autosize=1;strokeColor=#d6b656;fillColor=#fff2cc;" vertex="1" parent="1">
          <mxGeometry x="560" y="714" width="230" height="220" as="geometry" />
        </mxCell>
        <mxCell id="Kwo5XdqHO8HiKTrwuxf9-91" style="rounded=0;orthogonalLoop=1;jettySize=auto;html=1;dashed=1;exitX=0;exitY=0.5;exitDx=0;exitDy=0;entryX=1;entryY=0.5;entryDx=0;entryDy=0;" edge="1" parent="1" source="Kwo5XdqHO8HiKTrwuxf9-46" target="Kwo5XdqHO8HiKTrwuxf9-66">
          <mxGeometry relative="1" as="geometry">
            <mxPoint x="570" y="650" as="sourcePoint" />
            <mxPoint x="210" y="590" as="targetPoint" />
          </mxGeometry>
        </mxCell>
        <mxCell id="Kwo5XdqHO8HiKTrwuxf9-92" value="1" style="text;html=1;align=center;verticalAlign=middle;resizable=0;points=[];autosize=1;strokeColor=none;fillColor=none;" vertex="1" parent="1">
          <mxGeometry x="678.25" y="45" width="30" height="30" as="geometry" />
        </mxCell>
        <mxCell id="Kwo5XdqHO8HiKTrwuxf9-93" value="1" style="text;html=1;align=center;verticalAlign=middle;resizable=0;points=[];autosize=1;strokeColor=none;fillColor=none;" vertex="1" parent="1">
          <mxGeometry x="520" y="570" width="30" height="30" as="geometry" />
        </mxCell>
        <mxCell id="Kwo5XdqHO8HiKTrwuxf9-94" value="고객이 비대면업무호출 시 &lt;br&gt;각 업무가 처리되는 클래스이다.&lt;br&gt;&lt;b&gt;-업무인터페이스 메소드&lt;/b&gt;&lt;br&gt;&lt;b style=&quot;border-color: var(--border-color);&quot;&gt;업무등록 메소드&lt;/b&gt;는&lt;br style=&quot;border-color: var(--border-color);&quot;&gt;업무코드, 업무배정일,&lt;br&gt;업무상태를 등록한다.&lt;br&gt;&lt;b style=&quot;border-color: var(--border-color);&quot;&gt;업무조회 메소드&lt;/b&gt;는&lt;br style=&quot;border-color: var(--border-color);&quot;&gt;업무코드, 업무배정일 및 &lt;br&gt;각 업무상태를 조회한다.&lt;br&gt;&lt;b&gt;업무변경 메소드&lt;/b&gt;는&lt;br&gt;업무상태를 접수,완료,취소 등의&lt;br&gt;상태로 변경한다." style="text;html=1;align=left;verticalAlign=middle;resizable=0;points=[];autosize=1;strokeColor=#d6b656;fillColor=#fff2cc;" vertex="1" parent="1">
          <mxGeometry x="600" y="12" width="170" height="190" as="geometry" />
        </mxCell>
        <mxCell id="Kwo5XdqHO8HiKTrwuxf9-95" style="rounded=0;orthogonalLoop=1;jettySize=auto;html=1;entryX=0.452;entryY=1.077;entryDx=0;entryDy=0;entryPerimeter=0;" edge="1" parent="1" target="Kwo5XdqHO8HiKTrwuxf9-6">
          <mxGeometry relative="1" as="geometry">
            <mxPoint x="677" y="510" as="sourcePoint" />
            <mxPoint x="600" y="360" as="targetPoint" />
          </mxGeometry>
        </mxCell>
        <mxCell id="Kwo5XdqHO8HiKTrwuxf9-96" value="파일인터페이스 구현" style="text;html=1;align=center;verticalAlign=middle;resizable=0;points=[];autosize=1;strokeColor=none;fillColor=none;" vertex="1" parent="1">
          <mxGeometry x="121.25" y="684" width="120" height="30" as="geometry" />
        </mxCell>
        <mxCell id="Kwo5XdqHO8HiKTrwuxf9-97" value="업무인터페이스 구현" style="text;html=1;align=center;verticalAlign=middle;resizable=0;points=[];autosize=1;strokeColor=none;fillColor=none;" vertex="1" parent="1">
          <mxGeometry x="489.25" y="240" width="120" height="30" as="geometry" />
        </mxCell>
        <mxCell id="Kwo5XdqHO8HiKTrwuxf9-98" value="" style="rounded=0;orthogonalLoop=1;jettySize=auto;html=1;endArrow=block;endFill=0;dashed=1;exitX=0;exitY=0.5;exitDx=0;exitDy=0;" edge="1" parent="1" source="Kwo5XdqHO8HiKTrwuxf9-3">
          <mxGeometry relative="1" as="geometry">
            <mxPoint x="710" y="75" as="sourcePoint" />
            <mxPoint x="490" y="273" as="targetPoint" />
          </mxGeometry>
        </mxCell>
        <mxCell id="Kwo5XdqHO8HiKTrwuxf9-99" value="1" style="text;html=1;align=center;verticalAlign=middle;resizable=0;points=[];autosize=1;strokeColor=none;fillColor=none;" vertex="1" parent="1">
          <mxGeometry x="585" y="248" width="30" height="30" as="geometry" />
        </mxCell>
        <mxCell id="Kwo5XdqHO8HiKTrwuxf9-103" value="1" style="text;html=1;align=center;verticalAlign=middle;resizable=0;points=[];autosize=1;strokeColor=none;fillColor=none;" vertex="1" parent="1">
          <mxGeometry x="479" y="246" width="30" height="30" as="geometry" />
        </mxCell>
        <mxCell id="Kwo5XdqHO8HiKTrwuxf9-106" value="파일 업로드" style="text;html=1;align=center;verticalAlign=middle;resizable=0;points=[];autosize=1;strokeColor=none;fillColor=none;" vertex="1" parent="1">
          <mxGeometry x="334" y="572" width="80" height="30" as="geometry" />
        </mxCell>
        <mxCell id="Kwo5XdqHO8HiKTrwuxf9-107" value="파일 업로드" style="text;html=1;align=center;verticalAlign=middle;resizable=0;points=[];autosize=1;strokeColor=none;fillColor=none;" vertex="1" parent="1">
          <mxGeometry x="121.25" y="398" width="80" height="30" as="geometry" />
        </mxCell>
        <mxCell id="Kwo5XdqHO8HiKTrwuxf9-108" value="&lt;&lt;interface&gt;&gt;&#xa;업무" style="swimlane;fontStyle=2;align=center;verticalAlign=top;childLayout=stackLayout;horizontal=1;startSize=40;horizontalStack=0;resizeParent=1;resizeLast=0;collapsible=1;marginBottom=0;rounded=0;shadow=0;strokeWidth=1;" vertex="1" parent="1">
          <mxGeometry x="840" y="510" width="145" height="160" as="geometry">
            <mxRectangle x="230" y="140" width="160" height="26" as="alternateBounds" />
          </mxGeometry>
        </mxCell>
        <mxCell id="Kwo5XdqHO8HiKTrwuxf9-109" value="" style="line;html=1;strokeWidth=1;align=left;verticalAlign=middle;spacingTop=-1;spacingLeft=3;spacingRight=3;rotatable=0;labelPosition=right;points=[];portConstraint=eastwest;" vertex="1" parent="Kwo5XdqHO8HiKTrwuxf9-108">
          <mxGeometry y="40" width="145" height="8" as="geometry" />
        </mxCell>
        <mxCell id="Kwo5XdqHO8HiKTrwuxf9-110" value="업무등록&#xa;&#xa;업무조회&#xa;&#xa;업무변경&#xa;&#xa;업무삭제" style="text;align=left;verticalAlign=top;spacingLeft=4;spacingRight=4;overflow=hidden;rotatable=0;points=[[0,0.5],[1,0.5]];portConstraint=eastwest;" vertex="1" parent="Kwo5XdqHO8HiKTrwuxf9-108">
          <mxGeometry y="48" width="145" height="112" as="geometry" />
        </mxCell>
        <mxCell id="Kwo5XdqHO8HiKTrwuxf9-111" value="&lt;&lt;interface&gt;&gt;&#xa;파일업로드" style="swimlane;fontStyle=2;align=center;verticalAlign=top;childLayout=stackLayout;horizontal=1;startSize=40;horizontalStack=0;resizeParent=1;resizeLast=0;collapsible=1;marginBottom=0;rounded=0;shadow=0;strokeWidth=1;" vertex="1" parent="1">
          <mxGeometry x="840" y="700" width="152.5" height="152" as="geometry">
            <mxRectangle x="230" y="140" width="160" height="26" as="alternateBounds" />
          </mxGeometry>
        </mxCell>
        <mxCell id="Kwo5XdqHO8HiKTrwuxf9-112" value="" style="line;html=1;strokeWidth=1;align=left;verticalAlign=middle;spacingTop=-1;spacingLeft=3;spacingRight=3;rotatable=0;labelPosition=right;points=[];portConstraint=eastwest;" vertex="1" parent="Kwo5XdqHO8HiKTrwuxf9-111">
          <mxGeometry y="40" width="152.5" height="8" as="geometry" />
        </mxCell>
        <mxCell id="Kwo5XdqHO8HiKTrwuxf9-113" value="파일등록" style="text;align=left;verticalAlign=top;spacingLeft=4;spacingRight=4;overflow=hidden;rotatable=0;points=[[0,0.5],[1,0.5]];portConstraint=eastwest;fontStyle=0" vertex="1" parent="Kwo5XdqHO8HiKTrwuxf9-111">
          <mxGeometry y="48" width="152.5" height="26" as="geometry" />
        </mxCell>
        <mxCell id="Kwo5XdqHO8HiKTrwuxf9-114" value="파일조회" style="text;align=left;verticalAlign=top;spacingLeft=4;spacingRight=4;overflow=hidden;rotatable=0;points=[[0,0.5],[1,0.5]];portConstraint=eastwest;" vertex="1" parent="Kwo5XdqHO8HiKTrwuxf9-111">
          <mxGeometry y="74" width="152.5" height="26" as="geometry" />
        </mxCell>
        <mxCell id="Kwo5XdqHO8HiKTrwuxf9-115" value="파일변경" style="text;align=left;verticalAlign=top;spacingLeft=4;spacingRight=4;overflow=hidden;rotatable=0;points=[[0,0.5],[1,0.5]];portConstraint=eastwest;" vertex="1" parent="Kwo5XdqHO8HiKTrwuxf9-111">
          <mxGeometry y="100" width="152.5" height="26" as="geometry" />
        </mxCell>
        <mxCell id="Kwo5XdqHO8HiKTrwuxf9-116" value="파일삭제" style="text;align=left;verticalAlign=top;spacingLeft=4;spacingRight=4;overflow=hidden;rotatable=0;points=[[0,0.5],[1,0.5]];portConstraint=eastwest;" vertex="1" parent="Kwo5XdqHO8HiKTrwuxf9-111">
          <mxGeometry y="126" width="152.5" height="26" as="geometry" />
        </mxCell>
        <mxCell id="Kwo5XdqHO8HiKTrwuxf9-117" style="rounded=0;orthogonalLoop=1;jettySize=auto;html=1;exitX=0;exitY=0.5;exitDx=0;exitDy=0;entryX=0.993;entryY=0.311;entryDx=0;entryDy=0;entryPerimeter=0;dashed=1;" edge="1" parent="1" source="Kwo5XdqHO8HiKTrwuxf9-28" target="Kwo5XdqHO8HiKTrwuxf9-110">
          <mxGeometry relative="1" as="geometry" />
        </mxCell>
        <mxCell id="Kwo5XdqHO8HiKTrwuxf9-118" style="edgeStyle=orthogonalEdgeStyle;rounded=0;orthogonalLoop=1;jettySize=auto;html=1;exitX=0;exitY=0.5;exitDx=0;exitDy=0;dashed=1;" edge="1" parent="1">
          <mxGeometry relative="1" as="geometry">
            <mxPoint x="1180.25" y="590.9999999999998" as="sourcePoint" />
            <mxPoint x="995" y="780" as="targetPoint" />
            <Array as="points">
              <mxPoint x="1082" y="591" />
              <mxPoint x="1082" y="780" />
              <mxPoint x="995" y="780" />
            </Array>
          </mxGeometry>
        </mxCell>
        <mxCell id="Kwo5XdqHO8HiKTrwuxf9-121" value="1" style="text;html=1;align=center;verticalAlign=middle;resizable=0;points=[];autosize=1;strokeColor=none;fillColor=none;" vertex="1" parent="1">
          <mxGeometry x="1155" y="568" width="30" height="30" as="geometry" />
        </mxCell>
        <mxCell id="Kwo5XdqHO8HiKTrwuxf9-122" value="*" style="text;html=1;align=center;verticalAlign=middle;resizable=0;points=[];autosize=1;strokeColor=none;fillColor=none;" vertex="1" parent="1">
          <mxGeometry x="983" y="567" width="30" height="30" as="geometry" />
        </mxCell>
        <mxCell id="Kwo5XdqHO8HiKTrwuxf9-124" value="*" style="text;html=1;align=center;verticalAlign=middle;resizable=0;points=[];autosize=1;strokeColor=none;fillColor=none;" vertex="1" parent="1">
          <mxGeometry x="992.5" y="750" width="30" height="30" as="geometry" />
        </mxCell>
        <mxCell id="Kwo5XdqHO8HiKTrwuxf9-125" style="rounded=0;orthogonalLoop=1;jettySize=auto;html=1;exitX=1.004;exitY=0.973;exitDx=0;exitDy=0;entryX=0;entryY=0.5;entryDx=0;entryDy=0;dashed=1;endArrow=block;endFill=0;exitPerimeter=0;" edge="1" parent="1" source="Kwo5XdqHO8HiKTrwuxf9-46" target="Kwo5XdqHO8HiKTrwuxf9-110">
          <mxGeometry relative="1" as="geometry" />
        </mxCell>
        <mxCell id="Kwo5XdqHO8HiKTrwuxf9-126" style="rounded=0;orthogonalLoop=1;jettySize=auto;html=1;entryX=0;entryY=0.5;entryDx=0;entryDy=0;dashed=1;endArrow=block;endFill=0;" edge="1" parent="1" target="Kwo5XdqHO8HiKTrwuxf9-114">
          <mxGeometry relative="1" as="geometry">
            <mxPoint x="790" y="620" as="sourcePoint" />
            <mxPoint x="850" y="624" as="targetPoint" />
          </mxGeometry>
        </mxCell>
      </root>
    </mxGraphModel>
  </diagram>
</mxfile>
